<svg id="svg" version="1.1" xmlns="http://www.w3.org/2000/svg" xmlns:xlink="http://www.w3.org/1999/xlink" width="400" height="400" viewBox="0, 0, 400,400"><g id="svgg"><path id="path0" d="M0.000 200.000 L 0.000 400.000 200.000 400.000 L 400.000 400.000 400.000 200.000 L 400.000 0.000 200.000 0.000 L 0.000 0.000 0.000 200.000 M106.598 98.403 C 106.295 98.894,105.971 98.896,105.202 98.410 C 104.689 98.086,104.718 97.948,105.402 97.447 C 106.260 96.819,107.142 97.524,106.598 98.403 M138.588 98.839 C 138.335 99.636,138.303 99.639,137.611 98.931 C 136.960 98.265,136.952 98.137,137.524 97.485 C 138.306 96.594,139.014 97.496,138.588 98.839 M107.200 106.000 C 107.628 106.277,107.228 106.378,105.800 106.354 C 104.204 106.327,104.002 106.256,104.800 106.000 C 106.188 105.556,106.512 105.556,107.200 106.000 M279.785 105.963 C 280.490 106.239,280.456 106.299,279.451 106.551 C 278.165 106.874,276.679 106.520,277.018 105.971 C 277.288 105.533,278.676 105.530,279.785 105.963 M74.400 117.332 C 74.730 117.450,76.260 117.649,77.800 117.775 C 79.340 117.901,81.134 118.082,81.787 118.176 C 82.440 118.271,84.510 118.176,86.387 117.965 C 91.378 117.405,96.470 116.762,97.493 116.562 C 99.733 116.126,102.606 120.677,101.935 123.600 C 101.758 124.370,101.626 147.472,101.641 174.937 L 101.670 224.874 100.759 225.843 C 99.479 227.206,96.639 228.800,95.490 228.800 C 94.190 228.800,92.139 229.863,90.853 231.203 C 90.240 231.842,88.797 232.603,87.400 233.024 C 86.080 233.423,84.550 234.136,84.000 234.610 C 82.812 235.634,81.226 236.256,78.886 236.613 C 75.901 237.069,74.800 237.845,74.800 239.491 L 74.800 240.924 81.900 240.619 C 85.805 240.452,92.240 240.379,96.200 240.457 C 100.160 240.536,105.740 240.591,108.600 240.581 C 111.460 240.570,120.460 240.564,128.600 240.567 C 136.740 240.570,146.726 240.522,150.792 240.459 C 163.182 240.268,161.994 238.045,162.013 261.459 C 162.028 280.587,161.951 281.784,160.666 282.472 C 159.069 283.326,62.330 283.972,61.322 283.135 C 59.389 281.531,59.496 285.995,59.350 200.825 C 59.211 119.307,59.207 119.515,60.815 117.472 C 61.927 116.059,70.581 115.970,74.400 117.332 M119.496 117.260 C 121.103 118.252,120.623 118.850,118.162 118.920 C 116.357 118.971,115.834 118.414,116.626 117.284 C 117.396 116.185,117.753 116.182,119.496 117.260 M157.690 117.275 C 158.412 117.549,162.259 117.592,169.090 117.401 C 188.148 116.870,250.954 116.975,255.400 117.546 C 257.600 117.828,260.132 118.151,261.027 118.264 C 262.218 118.414,263.050 118.246,264.139 117.634 C 265.995 116.592,266.818 116.584,267.908 117.600 C 268.380 118.040,269.274 118.400,269.894 118.400 C 272.557 118.400,273.672 120.548,273.105 124.587 C 272.919 125.914,272.859 127.540,272.971 128.200 C 273.084 128.860,273.206 135.431,273.242 142.803 L 273.308 156.207 272.154 158.275 C 270.867 160.582,270.380 160.792,266.853 160.557 C 264.882 160.427,251.456 160.003,245.200 159.874 C 243.990 159.849,241.830 159.879,240.400 159.941 C 238.970 160.003,236.900 159.933,235.800 159.787 C 233.638 159.499,231.947 161.042,232.589 162.716 C 233.042 163.897,232.840 279.979,232.383 280.832 C 232.157 281.254,231.794 281.600,231.577 281.600 C 231.360 281.600,230.471 282.071,229.600 282.647 C 228.137 283.616,227.815 283.673,225.309 283.404 C 221.579 283.005,217.042 282.983,211.600 283.339 C 197.661 284.250,191.193 283.108,190.605 279.630 C 190.137 276.857,190.768 175.520,191.258 174.930 C 191.500 174.639,191.946 174.400,192.249 174.400 C 192.552 174.400,192.800 174.220,192.800 174.000 C 192.800 173.780,193.030 173.600,193.311 173.600 C 193.592 173.600,194.126 173.245,194.498 172.811 C 194.869 172.377,195.674 171.918,196.287 171.790 C 196.899 171.663,198.276 171.298,199.346 170.979 C 200.416 170.661,201.496 170.399,201.746 170.397 C 201.996 170.396,202.503 169.863,202.873 169.212 C 203.274 168.506,204.001 167.930,204.673 167.783 C 205.293 167.648,206.160 167.384,206.600 167.196 C 209.363 166.015,210.400 165.473,210.400 165.209 C 210.400 164.866,212.661 164.006,216.303 162.963 C 218.940 162.209,219.322 161.394,217.642 160.114 C 216.665 159.371,209.916 159.327,207.467 160.048 C 206.755 160.258,199.367 160.383,190.600 160.335 C 161.337 160.172,158.599 160.185,156.400 160.490 C 153.158 160.939,151.820 160.574,150.978 159.011 C 150.588 158.288,149.770 157.401,149.160 157.040 C 148.550 156.680,147.801 155.884,147.495 155.271 C 146.955 154.187,146.987 153.952,147.923 152.129 C 148.484 151.037,148.621 140.569,148.093 139.200 C 147.650 138.055,147.702 136.377,148.372 130.200 C 148.770 126.534,148.755 125.493,148.282 123.960 C 147.569 121.650,149.414 118.400,151.438 118.400 C 151.587 118.400,152.133 117.942,152.652 117.382 C 153.650 116.305,155.060 116.275,157.690 117.275 M340.830 120.042 C 341.685 121.242,341.698 121.412,341.238 125.208 C 340.885 128.124,340.773 148.403,340.804 204.067 C 340.827 245.280,340.835 279.377,340.823 279.839 C 340.742 282.815,336.231 284.435,332.063 282.984 C 330.662 282.496,329.619 282.450,326.663 282.747 C 324.648 282.949,320.120 283.021,316.600 282.906 C 311.331 282.733,309.861 282.812,308.282 283.350 C 304.310 284.702,299.231 282.742,299.187 279.839 C 298.983 266.390,299.277 138.636,299.515 137.800 C 299.971 136.190,301.918 134.952,304.502 134.630 C 306.095 134.430,306.722 134.159,307.013 133.541 C 307.354 132.816,308.191 132.237,310.415 131.189 C 310.754 131.029,311.745 130.778,312.619 130.631 C 313.786 130.433,314.379 130.063,314.855 129.234 C 315.483 128.139,319.648 126.400,321.640 126.400 C 322.029 126.400,322.459 126.043,322.598 125.607 C 322.879 124.720,324.231 124.036,327.869 122.942 C 329.969 122.311,330.370 122.040,330.553 121.129 C 331.075 118.534,339.148 117.680,340.830 120.042 M114.559 121.436 C 114.831 122.145,114.551 122.800,113.976 122.800 C 113.769 122.800,113.600 122.350,113.600 121.800 C 113.600 120.681,114.184 120.459,114.559 121.436 M122.921 126.195 C 122.965 126.412,122.685 126.650,122.300 126.724 C 121.862 126.808,121.600 126.612,121.600 126.200 C 121.600 125.504,122.782 125.499,122.921 126.195 M278.974 158.951 C 278.632 160.545,278.434 160.868,277.972 160.583 C 277.563 160.330,277.457 157.876,277.839 157.494 C 278.505 156.828,279.229 157.757,278.974 158.951 M197.494 166.160 C 197.713 166.380,191.548 166.589,189.891 166.419 C 189.420 166.371,188.978 166.833,188.579 167.789 C 188.247 168.583,187.801 169.124,187.588 168.993 C 187.375 168.861,187.200 169.119,187.200 169.567 C 187.200 171.175,185.580 171.733,181.200 171.633 C 177.781 171.555,176.867 170.836,176.662 168.061 C 176.528 166.264,176.605 166.023,177.356 165.879 C 178.654 165.629,197.222 165.889,197.494 166.160 M240.129 177.329 C 241.494 178.156,241.588 178.312,241.010 178.792 C 240.654 179.087,239.891 180.326,239.314 181.544 C 238.063 184.190,237.673 183.733,237.628 179.567 C 237.590 176.027,237.747 175.888,240.129 177.329 M115.555 217.552 L 116.509 218.286 115.455 218.551 C 114.875 218.696,114.400 218.996,114.400 219.218 C 114.400 219.439,113.854 219.338,113.187 218.993 C 111.991 218.375,111.900 217.600,113.024 217.600 C 113.341 217.600,113.600 217.420,113.600 217.200 C 113.600 216.580,114.502 216.742,115.555 217.552 M73.804 241.193 C 73.666 241.417,72.854 241.600,72.000 241.600 C 71.146 241.600,70.336 241.780,70.200 242.000 C 70.046 242.250,70.863 242.400,72.376 242.400 C 74.220 242.400,74.800 242.262,74.800 241.824 C 74.800 241.085,74.132 240.663,73.804 241.193 M248.327 264.215 L 250.400 264.831 250.400 266.615 C 250.400 267.597,250.220 268.400,250.000 268.400 C 249.780 268.400,249.600 268.220,249.600 268.000 C 249.600 267.780,248.797 267.600,247.816 267.600 C 245.850 267.600,241.600 266.434,241.600 265.894 C 241.600 265.706,241.780 265.664,242.000 265.800 C 242.220 265.936,242.404 265.812,242.409 265.524 C 242.433 264.073,245.537 263.387,248.327 264.215 M242.533 283.133 C 242.298 285.120,241.600 285.661,241.600 283.856 C 241.600 283.363,241.403 282.763,241.163 282.523 C 240.846 282.206,240.920 281.788,241.429 281.011 C 242.390 279.545,242.853 280.435,242.533 283.133 M170.653 287.485 C 170.445 288.192,170.144 288.689,169.984 288.590 C 169.459 288.265,169.310 285.892,169.743 284.745 L 170.167 283.623 170.599 284.911 C 170.885 285.764,170.904 286.635,170.653 287.485 " stroke="none" fill="#332c8c" fill-rule="evenodd"></path><path id="path1" d="M65.832 125.075 C 65.461 129.162,65.617 238.400,65.993 238.400 C 66.155 238.400,66.447 237.638,66.644 236.707 C 67.043 234.814,67.885 234.472,72.265 234.423 L 74.330 234.400 74.614 232.700 C 74.980 230.510,75.170 230.413,79.110 230.406 L 82.420 230.400 82.656 229.220 C 83.034 227.328,84.002 226.768,87.328 226.517 L 90.332 226.290 90.576 224.985 C 90.897 223.274,91.510 222.820,93.882 222.539 L 95.848 222.307 96.291 217.653 C 97.094 209.228,96.475 126.060,95.600 124.800 C 95.218 124.250,94.779 123.395,94.626 122.900 L 94.346 122.000 80.228 122.000 L 66.110 122.000 65.832 125.075 M157.053 123.050 C 156.643 123.613,155.788 124.255,155.153 124.476 L 154.000 124.878 154.000 138.769 L 154.000 152.661 154.926 153.530 L 155.852 154.400 194.646 154.400 C 224.286 154.400,233.553 154.287,233.920 153.920 C 234.293 153.547,234.400 153.547,234.400 153.920 C 234.400 154.285,238.222 154.400,250.400 154.400 L 266.400 154.400 266.400 138.200 L 266.400 122.000 265.500 122.000 C 265.005 122.001,264.079 122.449,263.442 122.997 L 262.285 123.992 261.361 122.996 L 260.438 122.000 209.119 122.013 L 157.800 122.025 157.053 123.050 M331.800 127.019 C 331.140 127.565,330.293 128.302,329.919 128.656 C 329.196 129.340,326.675 129.954,324.471 129.983 C 323.076 130.001,322.000 130.753,322.000 131.709 C 322.000 132.576,320.656 133.600,319.519 133.600 C 317.245 133.600,315.887 134.170,314.273 135.802 C 312.830 137.261,312.300 137.527,310.423 137.737 C 308.157 137.991,306.896 138.954,305.987 141.126 C 305.563 142.139,305.421 276.668,305.843 277.767 C 306.058 278.328,307.702 278.400,320.243 278.400 L 334.400 278.400 334.400 202.200 C 334.400 117.306,334.654 124.656,331.800 127.019 M225.843 162.633 C 225.709 162.981,225.600 163.534,225.600 163.861 C 225.600 164.906,224.651 165.459,222.398 165.726 C 221.192 165.869,220.141 166.178,220.062 166.414 C 219.481 168.158,216.843 169.445,213.119 169.802 C 210.534 170.050,210.412 170.111,209.719 171.502 C 208.876 173.194,208.413 173.480,206.000 173.795 C 204.608 173.977,203.755 174.435,202.239 175.815 C 200.924 177.012,199.919 177.600,199.188 177.600 C 196.881 177.600,197.011 174.861,196.876 226.561 C 196.781 263.014,196.866 274.693,197.240 276.300 L 197.728 278.400 212.064 278.400 L 226.400 278.400 226.400 220.200 C 226.400 188.190,226.329 162.000,226.243 162.000 C 226.156 162.000,225.976 162.285,225.843 162.633 M65.993 246.650 C 65.989 247.282,65.876 253.139,65.743 259.665 C 65.609 266.191,65.628 273.076,65.786 274.965 L 66.072 278.400 111.193 278.400 L 156.313 278.400 156.564 277.400 C 156.702 276.850,156.992 276.400,157.208 276.400 C 157.423 276.400,157.600 276.128,157.600 275.795 C 157.600 275.462,157.823 274.832,158.096 274.395 C 158.500 273.749,158.481 273.432,157.998 272.700 C 157.319 271.671,157.354 250.406,158.037 249.130 C 158.237 248.758,158.400 247.901,158.400 247.226 L 158.400 246.000 113.450 246.000 C 88.728 246.000,67.938 245.888,67.250 245.750 C 66.083 245.517,66.000 245.576,65.993 246.650 " stroke="none" fill="#fbfbfb" fill-rule="evenodd"></path><path id="path2" d="M63.207 118.690 C 62.461 118.990,61.925 119.527,61.080 120.820 C 60.097 122.323,60.004 277.245,60.985 279.313 C 62.400 282.294,62.620 282.304,121.135 282.000 L 159.669 281.800 160.635 280.678 L 161.600 279.555 161.600 262.158 C 161.600 244.182,161.449 242.400,159.921 242.400 C 159.669 242.400,159.115 242.085,158.689 241.700 C 157.966 241.045,156.076 241.006,129.458 241.094 C 97.975 241.198,98.804 241.199,88.400 241.019 C 84.330 240.949,79.605 240.871,77.900 240.846 L 74.800 240.800 74.800 239.429 C 74.800 237.904,75.947 237.067,78.740 236.552 C 79.543 236.404,81.100 235.723,82.200 235.038 C 84.656 233.509,85.871 232.934,87.306 232.622 C 87.914 232.490,88.785 232.071,89.240 231.691 C 89.695 231.311,90.420 230.702,90.851 230.338 C 91.282 229.974,92.730 229.348,94.070 228.947 C 95.509 228.516,96.923 227.774,97.528 227.133 C 98.091 226.537,98.946 225.950,99.428 225.829 C 101.688 225.261,101.600 227.442,101.598 171.940 L 101.596 121.000 100.636 119.800 L 99.676 118.600 81.738 118.525 C 71.872 118.484,63.533 118.558,63.207 118.690 M152.400 118.670 C 150.415 119.356,148.929 122.047,149.443 124.026 C 149.803 125.416,149.850 127.250,149.613 130.673 C 149.432 133.273,149.363 139.103,149.459 143.629 C 149.571 148.896,149.481 152.260,149.209 152.975 C 148.856 153.906,148.910 154.202,149.535 154.746 C 149.948 155.106,150.403 155.771,150.546 156.224 C 150.689 156.678,151.404 157.629,152.136 158.338 L 153.466 159.627 175.033 159.564 C 192.777 159.513,209.140 159.532,215.800 159.611 C 219.871 159.660,219.457 162.004,215.134 163.377 C 212.853 164.102,211.168 164.890,210.664 165.470 C 210.220 165.982,209.607 166.400,209.302 166.400 C 208.998 166.400,207.765 166.850,206.563 167.400 C 205.360 167.950,204.206 168.400,203.997 168.400 C 203.789 168.400,203.335 168.833,202.988 169.362 C 202.642 169.891,201.872 170.437,201.279 170.576 C 198.935 171.124,195.757 172.547,194.958 173.405 C 194.495 173.902,193.718 174.436,193.231 174.590 C 190.649 175.410,190.803 172.002,190.801 228.126 C 190.800 265.927,190.919 279.075,191.265 279.726 C 192.439 281.930,192.840 281.975,211.800 282.040 C 228.115 282.097,229.531 281.959,231.346 280.144 L 232.400 279.091 232.400 220.007 C 232.400 162.285,232.418 160.908,233.167 160.230 C 233.869 159.594,235.322 159.538,250.555 159.559 C 265.894 159.580,267.308 159.525,268.888 158.840 C 270.686 158.060,272.400 156.392,272.400 155.421 C 272.400 155.105,272.583 154.734,272.807 154.596 C 273.030 154.458,273.122 154.198,273.011 154.018 C 272.687 153.494,272.624 123.409,272.945 122.888 C 273.677 121.705,271.081 119.018,268.850 118.649 C 267.085 118.357,153.247 118.378,152.400 118.670 M331.836 120.940 C 330.992 121.736,329.024 122.818,326.984 123.606 C 325.097 124.336,323.338 125.239,323.076 125.613 C 322.814 125.987,321.970 126.430,321.200 126.598 C 318.997 127.079,315.764 128.630,315.155 129.500 C 314.850 129.936,313.970 130.427,313.200 130.592 C 311.025 131.058,307.641 132.842,307.381 133.660 C 307.252 134.066,306.664 134.503,306.073 134.632 C 302.421 135.426,299.800 137.737,299.406 140.509 C 299.274 141.439,299.219 173.113,299.283 210.896 L 299.400 279.592 300.400 280.517 C 300.950 281.025,301.760 281.579,302.200 281.746 C 303.445 282.222,321.311 282.407,330.260 282.038 C 338.908 281.681,339.156 281.615,340.349 279.321 C 340.687 278.670,340.794 258.106,340.760 199.960 L 340.714 121.477 339.775 120.539 C 338.171 118.935,333.724 119.160,331.836 120.940 M98.911 121.205 C 99.555 121.957,99.600 125.283,99.600 172.146 L 99.600 222.283 98.619 223.342 C 98.080 223.924,97.379 224.400,97.061 224.400 C 96.744 224.400,95.907 224.940,95.200 225.600 C 94.493 226.260,93.746 226.800,93.538 226.800 C 93.331 226.800,92.416 227.160,91.506 227.600 C 90.595 228.040,89.652 228.400,89.410 228.400 C 89.168 228.400,88.347 228.933,87.585 229.584 C 86.823 230.235,86.009 230.775,85.775 230.784 C 85.541 230.793,84.605 231.160,83.694 231.600 C 82.784 232.040,81.875 232.400,81.675 232.400 C 81.475 232.400,80.702 232.810,79.956 233.311 C 79.210 233.812,76.980 234.835,75.000 235.583 C 71.723 236.823,68.042 239.250,66.571 241.143 C 66.026 241.843,64.703 241.114,63.945 239.697 C 63.367 238.618,63.399 241.720,63.275 173.800 C 63.181 122.335,63.180 122.389,64.710 121.185 C 66.284 119.947,97.850 119.965,98.911 121.205 M268.695 121.187 L 270.390 121.956 270.295 138.217 L 270.200 154.478 268.494 155.436 L 266.789 156.394 249.494 156.474 C 239.982 156.517,230.400 156.542,228.200 156.528 C 226.000 156.513,208.360 156.489,189.000 156.473 L 153.800 156.443 153.024 155.395 C 151.911 153.892,151.940 122.372,153.054 121.140 C 154.122 119.960,266.092 120.005,268.695 121.187 M338.400 200.139 L 338.400 278.279 336.714 279.039 C 332.957 280.734,301.686 280.033,301.571 278.251 C 301.555 278.003,301.549 246.941,301.559 209.225 L 301.577 140.650 302.488 139.703 C 302.990 139.183,303.819 138.328,304.332 137.803 C 304.844 137.279,305.828 136.726,306.518 136.574 C 307.749 136.304,309.203 135.636,309.600 135.160 C 310.175 134.469,313.269 132.853,315.200 132.235 C 316.410 131.848,317.760 131.215,318.200 130.830 C 319.541 129.656,321.850 128.400,322.669 128.400 C 323.095 128.400,324.334 127.822,325.422 127.117 C 328.095 125.383,328.883 124.967,330.519 124.427 C 331.287 124.173,332.429 123.524,333.058 122.983 C 333.957 122.210,334.647 122.001,336.300 122.000 L 338.400 122.000 338.400 200.139 M228.100 160.533 C 228.974 161.519,228.878 155.442,228.985 216.400 C 229.036 245.110,229.150 270.795,229.239 273.478 L 229.400 278.357 227.686 279.213 C 225.330 280.391,194.657 280.315,193.471 279.129 C 192.850 278.507,192.800 274.705,192.800 228.175 L 192.800 177.894 193.661 177.147 C 194.135 176.736,194.698 176.400,194.913 176.400 C 195.128 176.400,196.165 175.782,197.217 175.026 C 198.268 174.271,200.398 173.211,201.949 172.672 C 203.500 172.132,205.631 171.068,206.684 170.306 C 207.738 169.544,209.545 168.588,210.700 168.182 C 211.855 167.775,212.800 167.327,212.800 167.186 C 212.800 166.714,217.077 164.829,218.757 164.560 C 219.670 164.414,220.514 164.139,220.632 163.947 C 220.751 163.756,221.152 163.592,221.524 163.583 C 221.896 163.574,222.650 163.000,223.200 162.309 C 225.837 158.994,226.516 158.748,228.100 160.533 M74.800 241.824 C 74.800 242.262,74.220 242.400,72.376 242.400 C 70.863 242.400,70.046 242.250,70.200 242.000 C 70.336 241.780,71.146 241.600,72.000 241.600 C 72.854 241.600,73.666 241.417,73.804 241.193 C 74.132 240.663,74.800 241.085,74.800 241.824 M67.720 243.600 C 68.068 243.600,68.450 243.758,68.570 243.951 C 68.693 244.150,88.194 244.251,113.595 244.185 L 158.403 244.069 159.001 244.923 C 159.960 246.291,159.892 278.165,158.929 279.129 C 157.808 280.249,66.149 280.373,64.769 279.256 C 63.494 278.223,62.905 275.041,63.315 271.400 C 63.488 269.860,63.514 266.033,63.373 262.895 C 62.898 252.339,63.470 245.023,64.891 243.503 C 65.984 242.333,66.126 242.284,66.586 242.913 C 66.862 243.291,67.373 243.600,67.720 243.600 " stroke="none" fill="#6c6a9e" fill-rule="evenodd"></path><path id="path3" d="M105.402 97.447 C 104.718 97.948,104.689 98.086,105.202 98.410 C 106.305 99.107,107.123 98.503,106.522 97.434 C 106.243 96.940,106.092 96.941,105.402 97.447 M137.524 97.485 C 136.952 98.137,136.960 98.265,137.611 98.931 C 138.303 99.639,138.335 99.636,138.588 98.839 C 139.014 97.496,138.306 96.594,137.524 97.485 M104.800 106.000 C 104.002 106.256,104.204 106.327,105.800 106.354 C 107.228 106.378,107.628 106.277,107.200 106.000 C 106.512 105.556,106.188 105.556,104.800 106.000 M277.018 105.971 C 276.679 106.520,278.165 106.874,279.451 106.551 C 280.456 106.299,280.490 106.239,279.785 105.963 C 278.676 105.530,277.288 105.533,277.018 105.971 M63.914 116.320 C 61.329 116.455,60.326 117.305,59.609 119.968 C 59.354 120.913,59.263 149.520,59.350 200.825 C 59.496 285.995,59.389 281.531,61.322 283.135 C 62.330 283.972,159.069 283.326,160.666 282.472 C 161.951 281.784,162.028 280.587,162.013 261.459 C 161.995 238.643,162.621 240.372,154.400 240.461 L 149.800 240.511 153.989 240.874 C 156.645 241.104,158.413 241.450,158.820 241.818 C 159.174 242.138,159.669 242.400,159.921 242.400 C 161.449 242.400,161.600 244.182,161.600 262.158 L 161.600 279.555 160.635 280.678 L 159.669 281.800 121.135 282.000 C 62.620 282.304,62.400 282.294,60.985 279.313 C 60.004 277.245,60.097 122.323,61.080 120.820 C 62.560 118.557,62.293 118.615,72.171 118.382 C 77.247 118.263,81.220 118.119,81.000 118.062 C 80.780 118.006,79.430 117.872,78.000 117.765 C 76.570 117.658,75.040 117.477,74.600 117.363 C 72.664 116.861,66.000 116.210,63.914 116.320 M95.800 116.808 C 93.976 117.076,87.231 117.850,84.800 118.070 C 84.250 118.119,87.372 118.259,91.739 118.380 L 99.678 118.600 100.637 119.800 C 101.301 120.631,101.611 121.554,101.645 122.800 C 101.689 124.398,101.725 124.465,101.969 123.400 C 102.490 121.121,99.720 116.151,98.099 116.456 C 97.935 116.487,96.900 116.645,95.800 116.808 M116.626 117.284 C 115.834 118.414,116.357 118.971,118.162 118.920 C 120.623 118.850,121.103 118.252,119.496 117.260 C 117.753 116.182,117.396 116.185,116.626 117.284 M152.652 117.382 C 152.133 117.942,151.587 118.400,151.438 118.400 C 149.414 118.400,147.569 121.650,148.282 123.960 C 148.755 125.493,148.770 126.534,148.372 130.200 C 147.702 136.377,147.650 138.055,148.093 139.200 C 148.621 140.569,148.484 151.037,147.923 152.129 C 146.987 153.952,146.955 154.187,147.495 155.271 C 147.801 155.884,148.550 156.680,149.160 157.040 C 149.770 157.401,150.588 158.288,150.978 159.011 C 151.820 160.574,153.158 160.939,156.400 160.490 C 158.617 160.182,162.370 160.166,190.283 160.345 C 198.689 160.399,206.249 160.298,207.083 160.121 C 209.798 159.546,200.623 159.389,176.600 159.600 L 153.800 159.800 152.317 158.469 C 151.501 157.737,150.711 156.747,150.560 156.269 C 150.409 155.791,149.948 155.106,149.535 154.746 C 148.910 154.202,148.856 153.906,149.209 152.975 C 149.481 152.260,149.571 148.896,149.459 143.629 C 149.363 139.103,149.432 133.273,149.613 130.673 C 149.850 127.250,149.803 125.416,149.443 124.026 L 148.945 122.107 150.440 120.353 L 151.935 118.600 205.867 118.400 C 235.530 118.290,259.170 118.074,258.400 117.920 C 257.630 117.767,255.740 117.502,254.200 117.333 C 250.744 116.952,183.239 117.007,169.090 117.401 C 162.259 117.592,158.412 117.549,157.690 117.275 C 155.060 116.275,153.650 116.305,152.652 117.382 M264.200 117.542 L 263.000 118.200 264.600 118.298 C 270.157 118.640,271.400 119.160,273.076 121.839 C 273.464 122.461,273.484 122.343,273.181 121.200 C 272.724 119.471,271.484 118.400,269.939 118.400 C 269.294 118.400,268.380 118.040,267.908 117.600 C 266.895 116.656,265.846 116.640,264.200 117.542 M332.046 119.403 C 330.942 120.010,330.415 120.731,330.406 121.647 C 330.402 122.110,330.806 121.911,331.828 120.947 C 333.169 119.683,333.429 119.600,336.047 119.600 C 340.656 119.600,340.747 119.782,340.615 128.843 C 340.556 132.889,340.566 134.850,340.637 133.200 C 340.707 131.550,340.973 128.186,341.228 125.725 C 341.881 119.399,341.456 118.783,336.473 118.839 C 334.432 118.862,332.606 119.095,332.046 119.403 M113.600 121.800 C 113.600 122.788,114.142 123.141,114.578 122.436 C 114.867 121.968,114.424 120.800,113.957 120.800 C 113.761 120.800,113.600 121.250,113.600 121.800 M272.755 124.300 C 272.631 128.466,272.859 153.771,273.023 154.037 C 273.128 154.206,273.030 154.458,272.807 154.596 C 272.583 154.734,272.400 155.105,272.400 155.421 C 272.400 158.252,268.490 159.640,260.629 159.599 C 249.600 159.540,247.058 159.591,247.333 159.866 C 247.479 160.012,251.424 160.194,256.099 160.270 C 260.775 160.346,265.614 160.475,266.853 160.557 C 270.380 160.792,270.867 160.582,272.153 158.277 L 273.305 156.211 273.160 142.405 C 273.079 134.812,273.056 127.295,273.107 125.700 C 273.158 124.105,273.110 122.800,273.000 122.800 C 272.890 122.800,272.780 123.475,272.755 124.300 M324.046 124.203 C 323.041 124.756,322.408 125.532,322.418 126.200 C 322.422 126.420,322.616 126.270,322.850 125.867 C 323.085 125.464,324.024 124.802,324.938 124.396 C 325.924 123.957,326.275 123.661,325.800 123.667 C 325.360 123.674,324.571 123.915,324.046 124.203 M121.600 126.200 C 121.600 126.612,121.862 126.808,122.300 126.724 C 123.143 126.561,123.090 125.852,122.221 125.671 C 121.859 125.595,121.600 125.816,121.600 126.200 M315.382 128.582 C 314.842 129.122,314.405 129.797,314.412 130.082 C 314.419 130.382,314.602 130.295,314.847 129.873 C 315.080 129.473,315.839 128.798,316.535 128.374 C 317.421 127.834,317.585 127.603,317.082 127.601 C 316.687 127.601,315.922 128.042,315.382 128.582 M307.900 132.446 C 307.295 132.897,306.812 133.567,306.827 133.933 C 306.847 134.429,306.966 134.369,307.288 133.700 C 307.527 133.205,307.840 132.800,307.985 132.800 C 308.129 132.800,308.596 132.536,309.024 132.213 C 309.451 131.890,309.620 131.625,309.400 131.625 C 309.180 131.625,308.505 131.995,307.900 132.446 M301.159 135.716 C 299.554 136.797,298.866 139.074,298.896 143.200 L 298.915 145.800 299.197 142.578 C 299.549 138.572,300.683 136.703,303.600 135.326 L 304.600 134.854 303.559 134.827 C 302.987 134.812,301.907 135.212,301.159 135.716 M298.928 154.800 C 298.928 156.230,299.001 156.815,299.089 156.100 C 299.178 155.385,299.178 154.215,299.089 153.500 C 299.001 152.785,298.928 153.370,298.928 154.800 M277.839 157.494 C 277.457 157.876,277.563 160.330,277.972 160.583 C 278.434 160.868,278.632 160.545,278.974 158.951 C 279.229 157.757,278.505 156.828,277.839 157.494 M244.900 159.476 C 245.285 159.576,245.915 159.576,246.300 159.476 C 246.685 159.375,246.370 159.293,245.600 159.293 C 244.830 159.293,244.515 159.375,244.900 159.476 M236.517 159.850 C 236.801 160.135,242.853 160.080,243.143 159.790 C 243.248 159.685,241.743 159.600,239.800 159.600 C 237.857 159.600,236.379 159.712,236.517 159.850 M232.400 220.879 L 232.400 279.091 231.346 280.144 C 229.531 281.959,228.115 282.097,211.800 282.040 C 196.138 281.986,193.426 281.850,192.355 281.060 C 190.856 279.955,190.802 279.250,190.704 259.526 L 190.608 240.200 190.487 259.000 C 190.346 280.808,190.354 280.912,192.122 281.818 C 195.555 283.577,201.210 284.018,211.600 283.339 C 217.042 282.983,221.579 283.005,225.309 283.404 C 227.815 283.673,228.137 283.616,229.600 282.647 C 230.471 282.071,231.360 281.600,231.577 281.600 C 231.794 281.600,232.157 281.254,232.383 280.832 C 232.817 280.022,233.055 163.322,232.624 162.891 C 232.501 162.768,232.400 188.862,232.400 220.879 M209.830 165.652 C 209.407 166.063,209.249 166.400,209.481 166.400 C 209.943 166.400,211.009 165.265,210.757 165.042 C 210.671 164.966,210.254 165.240,209.830 165.652 M177.356 165.879 C 176.605 166.023,176.528 166.264,176.662 168.061 C 176.867 170.836,177.781 171.555,181.200 171.633 C 185.580 171.733,187.200 171.175,187.200 169.567 C 187.200 169.119,187.375 168.861,187.588 168.993 C 187.801 169.124,188.247 168.583,188.579 167.789 C 188.978 166.833,189.420 166.371,189.891 166.419 C 191.548 166.589,197.713 166.380,197.494 166.160 C 197.222 165.889,178.654 165.629,177.356 165.879 M203.544 168.396 L 202.600 169.192 204.000 168.534 C 205.752 167.712,205.885 167.600,205.111 167.600 C 204.769 167.600,204.064 167.958,203.544 168.396 M195.400 172.077 C 194.960 172.325,194.456 172.770,194.280 173.065 C 194.104 173.359,193.699 173.600,193.380 173.600 C 193.061 173.600,192.800 173.737,192.800 173.905 C 192.800 174.073,192.395 174.388,191.900 174.605 C 191.307 174.865,190.959 175.410,190.881 176.200 L 190.761 177.400 191.553 176.136 C 191.989 175.440,192.762 174.740,193.272 174.578 C 193.783 174.417,194.439 173.946,194.731 173.531 C 195.022 173.117,195.832 172.527,196.531 172.221 C 197.471 171.809,197.593 171.660,197.000 171.645 C 196.560 171.634,195.840 171.828,195.400 172.077 M237.867 176.667 C 237.506 177.028,237.580 182.006,237.961 182.980 C 238.216 183.631,238.439 183.395,239.314 181.544 C 239.891 180.326,240.654 179.087,241.010 178.792 C 241.588 178.312,241.494 178.156,240.129 177.329 C 238.469 176.325,238.268 176.266,237.867 176.667 M190.569 221.000 C 190.570 225.620,190.628 227.455,190.699 225.078 C 190.770 222.701,190.769 218.921,190.698 216.678 C 190.627 214.435,190.569 216.380,190.569 221.000 M113.600 217.200 C 113.600 217.420,113.341 217.600,113.024 217.600 C 111.900 217.600,111.991 218.375,113.187 218.993 C 113.854 219.338,114.400 219.439,114.400 219.218 C 114.400 218.996,114.875 218.696,115.455 218.551 L 116.509 218.286 115.555 217.552 C 114.502 216.742,113.600 216.580,113.600 217.200 M101.600 220.840 C 101.600 223.376,100.631 225.527,99.343 225.850 C 98.814 225.983,98.148 226.425,97.862 226.832 C 97.577 227.240,96.816 227.848,96.172 228.184 C 95.346 228.615,95.215 228.796,95.729 228.798 C 96.670 228.801,99.590 227.088,100.752 225.851 C 101.622 224.925,102.583 218.800,101.858 218.800 C 101.716 218.800,101.600 219.718,101.600 220.840 M90.895 230.300 C 90.440 230.685,89.673 231.329,89.192 231.732 C 88.710 232.135,87.701 232.564,86.948 232.686 C 86.196 232.808,85.484 233.064,85.367 233.254 C 84.637 234.435,89.641 232.423,91.140 230.933 C 92.531 229.549,92.346 229.072,90.895 230.300 M82.294 234.896 C 81.246 235.570,80.454 236.187,80.533 236.266 C 80.825 236.558,83.440 235.240,84.170 234.433 C 85.212 233.282,84.548 233.446,82.294 234.896 M86.200 240.420 C 80.808 241.015,80.821 241.057,86.400 241.028 C 89.370 241.013,93.870 241.045,96.400 241.100 C 98.930 241.155,101.630 241.038,102.400 240.841 C 103.442 240.574,102.408 240.471,98.356 240.441 C 95.362 240.418,92.122 240.325,91.156 240.233 C 90.190 240.142,87.960 240.226,86.200 240.420 M113.400 240.625 C 104.922 241.052,105.358 241.067,125.285 241.034 C 136.661 241.015,145.661 240.886,145.285 240.746 C 144.908 240.607,139.666 240.465,133.635 240.430 C 127.605 240.396,122.565 240.326,122.435 240.275 C 122.306 240.224,118.240 240.382,113.400 240.625 M340.942 259.000 C 340.941 260.980,341.008 261.840,341.092 260.912 C 341.176 259.984,341.177 258.364,341.095 257.312 C 341.012 256.260,340.943 257.020,340.942 259.000 M298.940 263.200 C 298.940 265.070,299.009 265.835,299.093 264.900 C 299.177 263.965,299.177 262.435,299.093 261.500 C 299.009 260.565,298.940 261.330,298.940 263.200 M243.709 264.354 C 242.998 264.709,242.413 265.236,242.409 265.524 C 242.404 265.812,242.220 265.936,242.000 265.800 C 241.780 265.664,241.600 265.706,241.600 265.894 C 241.600 266.434,245.850 267.600,247.816 267.600 C 248.797 267.600,249.600 267.780,249.600 268.000 C 249.600 268.220,249.780 268.400,250.000 268.400 C 250.220 268.400,250.400 267.597,250.400 266.615 L 250.400 264.831 248.327 264.215 C 245.877 263.488,245.413 263.502,243.709 264.354 M340.520 272.400 C 340.520 273.610,340.595 274.105,340.687 273.500 C 340.778 272.895,340.778 271.905,340.687 271.300 C 340.595 270.695,340.520 271.190,340.520 272.400 M298.857 277.000 C 298.691 282.291,302.955 285.163,308.282 283.350 C 309.861 282.812,311.331 282.733,316.600 282.906 C 320.120 283.021,324.648 282.949,326.663 282.747 C 329.619 282.450,330.662 282.496,332.063 282.984 C 337.423 284.850,342.824 281.099,341.073 276.725 C 340.958 276.436,340.849 276.707,340.832 277.326 C 340.794 278.652,340.197 279.907,339.106 280.953 C 338.099 281.918,326.911 282.449,312.600 282.211 C 300.671 282.013,299.891 281.754,299.223 277.767 C 298.997 276.412,298.882 276.174,298.857 277.000 M241.429 281.011 C 240.920 281.788,240.846 282.206,241.163 282.523 C 241.403 282.763,241.600 283.363,241.600 283.856 C 241.600 285.661,242.298 285.120,242.533 283.133 C 242.853 280.435,242.390 279.545,241.429 281.011 M169.743 284.745 C 169.310 285.892,169.459 288.265,169.984 288.590 C 170.582 288.959,171.040 286.224,170.599 284.911 L 170.167 283.623 169.743 284.745 " stroke="none" fill="#3d389c" fill-rule="evenodd"></path><path id="path4" d="M64.710 121.185 C 63.180 122.389,63.181 122.335,63.275 173.800 C 63.399 241.720,63.367 238.618,63.945 239.697 C 64.703 241.114,66.026 241.843,66.571 241.143 C 68.042 239.250,71.723 236.823,75.000 235.583 C 76.980 234.835,79.210 233.812,79.956 233.311 C 80.702 232.810,81.475 232.400,81.675 232.400 C 81.875 232.400,82.784 232.040,83.694 231.600 C 84.605 231.160,85.541 230.793,85.775 230.784 C 86.009 230.775,86.823 230.235,87.585 229.584 C 88.347 228.933,89.168 228.400,89.410 228.400 C 89.652 228.400,90.595 228.040,91.506 227.600 C 92.416 227.160,93.331 226.800,93.538 226.800 C 93.746 226.800,94.493 226.260,95.200 225.600 C 95.907 224.940,96.744 224.400,97.061 224.400 C 97.379 224.400,98.080 223.924,98.619 223.342 L 99.600 222.283 99.600 172.146 C 99.600 125.283,99.555 121.957,98.911 121.205 C 97.850 119.965,66.284 119.947,64.710 121.185 M153.054 121.140 C 151.940 122.372,151.911 153.892,153.024 155.395 L 153.800 156.443 189.000 156.473 C 208.360 156.489,226.000 156.513,228.200 156.528 C 230.400 156.542,239.982 156.517,249.494 156.474 L 266.789 156.394 268.494 155.436 L 270.200 154.478 270.295 138.217 L 270.390 121.956 268.695 121.187 C 266.092 120.005,154.122 119.960,153.054 121.140 M94.626 122.900 C 94.779 123.395,95.218 124.250,95.600 124.800 C 96.475 126.060,97.094 209.228,96.291 217.653 L 95.848 222.307 93.882 222.539 C 91.510 222.820,90.897 223.274,90.576 224.985 L 90.332 226.290 87.328 226.517 C 84.002 226.768,83.034 227.328,82.656 229.220 L 82.420 230.400 79.110 230.406 C 75.170 230.413,74.980 230.510,74.614 232.700 L 74.330 234.400 72.265 234.423 C 67.885 234.472,67.043 234.814,66.644 236.707 C 66.447 237.638,66.155 238.400,65.993 238.400 C 65.617 238.400,65.461 129.162,65.832 125.075 L 66.110 122.000 80.228 122.000 L 94.346 122.000 94.626 122.900 M261.361 122.996 L 262.285 123.992 263.442 122.997 C 264.079 122.449,265.005 122.001,265.500 122.000 L 266.400 122.000 266.400 138.200 L 266.400 154.400 250.400 154.400 C 238.222 154.400,234.400 154.285,234.400 153.920 C 234.400 153.547,234.293 153.547,233.920 153.920 C 233.553 154.287,224.286 154.400,194.646 154.400 L 155.852 154.400 154.926 153.530 L 154.000 152.661 154.000 138.769 L 154.000 124.878 155.153 124.476 C 155.788 124.255,156.643 123.613,157.053 123.050 L 157.800 122.025 209.119 122.013 L 260.438 122.000 261.361 122.996 M333.058 122.983 C 332.429 123.524,331.287 124.173,330.519 124.427 C 328.883 124.967,328.095 125.383,325.422 127.117 C 324.334 127.822,323.095 128.400,322.669 128.400 C 321.850 128.400,319.541 129.656,318.200 130.830 C 317.760 131.215,316.410 131.848,315.200 132.235 C 313.269 132.853,310.175 134.469,309.600 135.160 C 309.203 135.636,307.749 136.304,306.518 136.574 C 305.828 136.726,304.844 137.279,304.332 137.803 C 303.819 138.328,302.990 139.183,302.488 139.703 L 301.577 140.650 301.559 209.225 C 301.549 246.941,301.555 278.003,301.571 278.251 C 301.686 280.033,332.957 280.734,336.714 279.039 L 338.400 278.279 338.400 200.139 L 338.400 122.000 336.300 122.000 C 334.647 122.001,333.957 122.210,333.058 122.983 M334.400 202.200 L 334.400 278.400 320.243 278.400 C 307.702 278.400,306.058 278.328,305.843 277.767 C 305.421 276.668,305.563 142.139,305.987 141.126 C 306.896 138.954,308.157 137.991,310.423 137.737 C 312.300 137.527,312.830 137.261,314.273 135.802 C 315.887 134.170,317.245 133.600,319.519 133.600 C 320.656 133.600,322.000 132.576,322.000 131.709 C 322.000 130.753,323.076 130.001,324.471 129.983 C 326.675 129.954,329.196 129.340,329.919 128.656 C 331.686 126.985,333.061 126.024,333.700 126.013 C 334.364 126.001,334.400 129.890,334.400 202.200 M225.078 160.130 C 224.595 160.637,223.750 161.618,223.200 162.309 C 222.650 163.000,221.896 163.574,221.524 163.583 C 221.152 163.592,220.751 163.756,220.632 163.947 C 220.514 164.139,219.670 164.414,218.757 164.560 C 217.077 164.829,212.800 166.714,212.800 167.186 C 212.800 167.327,211.855 167.775,210.700 168.182 C 209.545 168.588,207.738 169.544,206.684 170.306 C 205.631 171.068,203.500 172.132,201.949 172.672 C 200.398 173.211,198.268 174.271,197.217 175.026 C 196.165 175.782,195.128 176.400,194.913 176.400 C 194.698 176.400,194.135 176.736,193.661 177.147 L 192.800 177.894 192.800 228.175 C 192.800 274.705,192.850 278.507,193.471 279.129 C 194.657 280.315,225.330 280.391,227.686 279.213 L 229.400 278.357 229.239 273.478 C 229.150 270.795,229.036 245.110,228.985 216.400 C 228.935 187.690,228.872 163.553,228.847 162.761 C 228.761 160.132,226.548 158.586,225.078 160.130 M226.400 220.200 L 226.400 278.400 212.064 278.400 L 197.728 278.400 197.240 276.300 C 196.866 274.693,196.781 263.014,196.876 226.561 C 197.011 174.861,196.881 177.600,199.188 177.600 C 199.919 177.600,200.924 177.012,202.239 175.815 C 203.755 174.435,204.608 173.977,206.000 173.795 C 208.413 173.480,208.876 173.194,209.719 171.502 C 210.412 170.111,210.534 170.050,213.119 169.802 C 216.843 169.445,219.481 168.158,220.062 166.414 C 220.141 166.178,221.192 165.869,222.398 165.726 C 224.651 165.459,225.600 164.906,225.600 163.861 C 225.600 163.181,226.008 162.000,226.243 162.000 C 226.329 162.000,226.400 188.190,226.400 220.200 M64.891 243.503 C 63.470 245.023,62.898 252.339,63.373 262.895 C 63.514 266.033,63.488 269.860,63.315 271.400 C 62.905 275.041,63.494 278.223,64.769 279.256 C 66.149 280.373,157.808 280.249,158.929 279.129 C 159.892 278.165,159.960 246.291,159.001 244.923 L 158.403 244.069 113.595 244.185 C 88.194 244.251,68.693 244.150,68.570 243.951 C 68.450 243.758,68.068 243.600,67.720 243.600 C 67.373 243.600,66.862 243.291,66.586 242.913 C 66.126 242.284,65.984 242.333,64.891 243.503 M113.450 246.000 L 158.400 246.000 158.400 247.226 C 158.400 247.901,158.237 248.758,158.037 249.130 C 157.354 250.406,157.319 271.671,157.998 272.700 C 158.481 273.432,158.500 273.749,158.096 274.395 C 157.823 274.832,157.600 275.462,157.600 275.795 C 157.600 276.128,157.423 276.400,157.208 276.400 C 156.992 276.400,156.702 276.850,156.564 277.400 L 156.313 278.400 111.193 278.400 L 66.072 278.400 65.786 274.965 C 65.628 273.076,65.609 266.191,65.743 259.665 C 65.876 253.139,65.989 247.282,65.993 246.650 C 66.000 245.576,66.083 245.517,67.250 245.750 C 67.938 245.888,88.728 246.000,113.450 246.000 " stroke="none" fill="#ececfc" fill-rule="evenodd"></path></g></svg>