<svg id="svg" version="1.1" xmlns="http://www.w3.org/2000/svg" xmlns:xlink="http://www.w3.org/1999/xlink" width="400" height="400" viewBox="0, 0, 400,400"><g id="svgg"><path id="path0" d="M0.000 200.000 L 0.000 400.000 200.000 400.000 L 400.000 400.000 400.000 200.000 L 400.000 0.000 200.000 0.000 L 0.000 0.000 0.000 200.000 M82.600 171.347 C 85.452 171.965,86.988 172.747,88.567 174.388 C 89.208 175.054,89.891 175.600,90.084 175.600 C 91.877 175.600,93.975 180.852,93.164 183.309 C 92.056 186.666,90.085 186.983,87.137 184.278 C 84.298 181.673,82.330 180.400,81.143 180.400 C 80.485 180.400,79.601 180.214,79.177 179.988 C 78.596 179.677,77.692 179.816,75.503 180.555 C 73.906 181.094,72.005 181.656,71.279 181.804 C 70.499 181.963,70.039 182.263,70.156 182.536 C 70.265 182.791,70.556 183.723,70.801 184.607 C 71.228 186.142,71.365 186.249,73.866 187.005 C 75.341 187.450,77.122 188.341,77.946 189.047 C 79.116 190.048,80.128 190.436,83.004 190.985 C 87.361 191.816,89.734 192.643,90.642 193.647 C 91.017 194.061,91.499 194.400,91.713 194.400 C 92.289 194.400,96.335 198.788,97.014 200.149 C 99.280 204.691,96.208 211.074,89.729 215.287 C 86.804 217.188,78.746 218.074,72.202 217.213 C 66.418 216.451,65.863 216.229,63.937 213.893 C 62.988 212.742,62.080 211.703,61.919 211.585 C 59.246 209.615,59.121 201.573,61.747 200.565 C 62.361 200.329,64.800 201.411,64.800 201.919 C 64.800 202.084,65.407 202.545,66.148 202.944 C 66.889 203.343,67.842 204.326,68.264 205.129 C 69.162 206.834,69.979 207.279,75.200 208.907 C 78.043 209.793,81.172 209.500,84.100 208.074 L 86.800 206.759 86.800 204.171 C 86.800 201.266,87.080 201.532,82.600 200.179 C 81.280 199.780,80.020 199.323,79.800 199.163 C 78.924 198.527,74.275 197.179,71.713 196.819 C 69.369 196.489,68.827 196.249,67.727 195.054 C 67.027 194.294,66.127 193.566,65.727 193.438 C 64.389 193.009,62.804 191.321,62.551 190.054 C 62.413 189.364,62.147 188.800,61.960 188.800 C 61.201 188.800,60.400 186.325,60.400 183.982 C 60.400 181.693,61.263 179.200,62.054 179.200 C 62.210 179.200,62.452 178.673,62.594 178.029 C 62.899 176.637,64.552 174.878,65.863 174.549 C 66.378 174.419,66.800 174.075,66.800 173.784 C 66.800 171.519,76.488 170.025,82.600 171.347 M206.322 172.358 C 207.811 173.155,208.346 174.661,208.982 179.848 C 209.879 187.163,209.923 187.367,210.805 188.313 C 211.242 188.783,211.600 189.408,211.600 189.703 C 211.600 189.998,211.774 190.414,211.988 190.628 C 212.398 191.038,213.600 198.820,213.600 201.070 C 213.600 203.280,214.326 202.562,214.581 200.100 C 215.141 194.688,216.180 191.252,217.644 189.969 C 218.147 189.528,218.438 188.505,218.611 186.569 C 219.127 180.801,220.371 176.509,221.755 175.725 C 222.070 175.546,222.488 174.783,222.682 174.030 C 223.251 171.822,224.763 170.980,227.929 171.107 C 231.815 171.262,233.570 173.160,233.594 177.234 C 233.597 177.803,234.222 179.067,234.983 180.044 C 236.235 181.651,236.425 182.251,236.997 186.409 C 237.344 188.934,237.722 191.592,237.835 192.316 C 237.953 193.063,238.527 194.063,239.164 194.631 C 239.781 195.181,240.627 196.342,241.043 197.211 C 241.459 198.080,241.911 198.793,242.046 198.795 C 242.365 198.801,242.800 195.599,242.800 193.244 C 242.800 189.261,244.388 183.171,245.713 182.072 C 246.086 181.762,246.452 180.605,246.597 179.272 C 247.338 172.460,247.963 171.600,252.171 171.600 C 257.275 171.600,258.893 177.701,254.801 181.513 C 254.142 182.127,253.831 183.040,253.591 185.070 C 252.651 193.001,252.381 194.156,251.085 195.786 C 250.117 197.004,249.760 197.933,249.549 199.786 C 248.674 207.484,248.209 209.305,246.685 210.992 C 246.291 211.428,245.869 212.238,245.747 212.792 C 244.880 216.726,243.412 217.719,239.439 217.059 C 235.714 216.440,235.214 215.749,234.738 210.573 C 234.465 207.609,234.205 206.524,233.649 206.038 C 232.093 204.679,231.526 202.647,230.575 195.029 C 230.373 193.404,229.952 192.613,228.175 190.518 C 225.700 187.600,225.936 187.342,225.179 193.800 C 224.605 198.689,224.208 200.092,222.981 201.550 C 221.875 202.864,221.420 204.681,220.816 210.200 C 220.199 215.835,217.043 218.439,212.503 217.061 C 208.364 215.805,207.559 214.168,206.577 205.012 C 206.413 203.490,206.067 202.403,205.619 202.012 C 203.982 200.582,203.408 198.480,202.805 191.709 C 202.572 189.093,202.277 187.820,201.792 187.335 C 200.162 185.705,198.800 180.313,198.800 175.493 C 198.800 171.374,201.994 170.042,206.322 172.358 M320.181 172.403 C 320.899 173.121,320.982 173.950,321.182 182.374 C 321.391 191.191,321.822 194.051,322.581 191.661 C 322.724 191.210,323.192 190.730,323.620 190.594 C 324.049 190.457,324.400 190.084,324.400 189.764 C 324.400 189.445,324.847 188.979,325.392 188.731 C 325.938 188.482,326.490 187.946,326.619 187.539 C 326.748 187.133,326.985 186.800,327.145 186.800 C 327.305 186.800,328.178 186.107,329.086 185.261 C 331.643 182.877,333.829 182.426,336.493 183.734 C 339.522 185.221,339.837 185.925,338.237 187.631 C 337.531 188.384,336.635 189.543,336.246 190.206 C 335.857 190.870,334.938 191.806,334.204 192.287 C 333.471 192.768,332.360 193.845,331.737 194.681 C 331.114 195.516,330.493 196.290,330.356 196.400 C 329.381 197.185,329.645 198.347,330.975 199.132 C 331.832 199.638,332.481 200.392,332.650 201.079 C 332.981 202.421,333.733 203.629,335.244 205.247 C 336.557 206.652,337.600 208.612,337.600 209.671 C 337.600 210.093,338.019 210.579,338.560 210.785 C 339.864 211.280,340.800 212.719,340.800 214.227 C 340.800 218.207,331.718 218.362,330.661 214.400 C 330.514 213.850,329.825 213.040,329.130 212.600 C 328.230 212.031,327.617 211.129,327.005 209.474 C 326.308 207.591,325.747 206.849,324.062 205.573 L 321.981 203.998 321.590 205.025 C 321.376 205.590,321.200 207.814,321.200 209.966 C 321.200 216.368,320.366 217.462,315.875 216.954 C 311.558 216.466,311.606 216.606,311.569 204.242 C 311.534 192.334,311.029 189.190,309.393 190.698 C 308.318 191.689,306.504 192.394,304.167 192.729 C 301.253 193.145,301.213 193.311,301.206 204.846 C 301.199 216.974,301.266 216.800,296.593 216.800 C 294.052 216.800,293.489 216.666,292.522 215.834 L 291.400 214.868 291.405 200.697 L 291.409 186.526 292.462 185.145 L 293.515 183.764 300.326 183.241 C 305.669 182.830,307.450 182.821,308.593 183.198 C 311.008 183.995,311.600 183.114,311.600 178.725 C 311.600 174.528,312.209 172.731,313.851 172.088 C 316.524 171.040,318.938 171.160,320.181 172.403 M120.718 183.368 C 123.023 183.863,124.800 184.851,124.800 185.640 C 124.800 185.814,125.635 186.745,126.656 187.710 L 128.512 189.464 128.888 195.832 C 129.513 206.412,128.989 214.272,127.565 215.697 C 126.057 217.204,123.240 216.829,121.179 214.846 C 120.498 214.190,119.775 205.771,119.674 197.313 C 119.646 194.934,119.442 193.718,118.939 192.913 C 118.556 192.301,118.210 191.748,118.172 191.684 C 117.706 190.917,114.075 191.056,113.203 191.875 C 112.661 192.384,111.943 192.806,111.608 192.813 C 109.533 192.856,108.793 196.717,108.797 207.482 C 108.801 216.702,108.297 217.546,103.461 216.424 C 100.898 215.829,100.228 214.862,99.495 210.699 C 98.435 204.676,98.331 202.609,98.992 200.712 C 99.425 199.469,99.590 197.212,99.594 192.471 C 99.598 187.732,99.739 185.804,100.108 185.435 C 101.297 184.245,102.809 183.874,107.463 183.627 C 110.160 183.484,112.494 183.239,112.650 183.083 C 113.117 182.617,118.021 182.790,120.718 183.368 M155.240 183.228 C 160.578 184.908,161.490 186.733,162.017 196.778 C 162.230 200.836,162.307 204.462,162.189 204.836 C 162.070 205.209,162.318 206.839,162.739 208.457 C 164.550 215.409,163.657 216.559,156.403 216.624 C 154.311 216.643,150.102 216.880,147.050 217.151 C 143.093 217.502,141.153 217.522,140.290 217.222 C 139.625 216.990,138.659 216.800,138.144 216.800 C 137.175 216.800,134.800 214.666,134.800 213.796 C 134.800 213.529,134.292 212.671,133.671 211.890 C 131.301 208.906,131.268 204.540,133.611 203.796 C 134.018 203.667,134.555 202.943,134.804 202.187 C 135.350 200.534,136.759 199.349,138.852 198.786 C 141.012 198.204,141.010 196.973,138.849 196.608 C 134.857 195.934,133.913 190.004,137.201 186.260 C 139.394 183.762,140.343 183.465,147.000 183.195 C 150.300 183.060,153.198 182.917,153.440 182.875 C 153.682 182.834,154.492 182.993,155.240 183.228 M188.042 183.285 C 189.624 183.651,190.499 184.153,191.573 185.313 C 192.358 186.162,193.662 187.544,194.472 188.384 C 197.270 191.290,198.367 199.087,197.055 206.730 L 196.416 210.449 193.436 213.428 L 190.457 216.408 187.128 216.997 C 185.298 217.320,182.434 217.589,180.764 217.593 L 177.728 217.600 177.275 220.300 C 177.025 221.785,176.708 223.841,176.570 224.869 C 176.031 228.877,170.040 230.514,168.341 227.117 C 167.299 225.034,166.636 211.161,167.169 202.600 C 167.402 198.860,167.595 193.820,167.598 191.400 C 167.606 184.290,167.519 184.358,177.596 183.586 C 180.783 183.342,183.468 183.065,183.562 182.971 C 183.880 182.653,185.926 182.797,188.042 183.285 M279.298 183.277 C 280.173 183.539,281.471 184.304,282.183 184.977 C 282.895 185.650,283.820 186.396,284.238 186.636 C 284.657 186.876,285.313 187.724,285.695 188.520 C 286.078 189.316,286.739 190.153,287.165 190.381 C 288.884 191.301,289.202 192.884,289.170 200.361 C 289.131 209.303,289.263 208.953,283.558 215.173 C 280.275 218.752,264.744 218.691,263.007 215.093 C 262.664 214.382,261.801 213.530,261.091 213.200 C 260.067 212.724,259.634 212.130,258.996 210.328 C 258.554 209.078,257.808 207.638,257.339 207.128 C 255.177 204.774,255.187 196.852,257.357 193.823 C 257.821 193.176,258.560 191.563,259.000 190.240 C 259.714 188.092,259.984 187.746,261.515 187.017 C 262.539 186.529,263.319 185.849,263.451 185.328 C 263.660 184.504,265.229 183.513,267.000 183.086 C 268.692 182.678,277.768 182.818,279.298 183.277 M181.337 190.470 C 180.932 190.918,179.964 191.610,179.187 192.006 C 175.771 193.750,175.420 205.509,178.710 207.974 C 180.446 209.275,180.709 209.526,180.882 210.045 C 181.260 211.179,186.167 210.156,186.584 208.857 C 186.700 208.496,187.246 207.677,187.798 207.038 C 188.349 206.399,188.804 205.679,188.809 205.438 C 188.814 205.197,189.170 204.550,189.600 204.000 C 190.746 202.535,190.726 198.419,189.567 197.370 C 189.109 196.955,188.490 196.032,188.191 195.318 C 187.529 193.733,186.804 192.979,184.137 191.105 L 182.074 189.655 181.337 190.470 M271.309 190.496 C 270.600 190.724,269.907 191.264,269.770 191.695 C 269.633 192.127,268.748 192.822,267.803 193.240 C 265.750 194.148,265.709 194.238,265.415 198.473 C 265.082 203.280,265.543 206.049,266.781 206.666 C 267.988 207.267,269.179 208.763,269.191 209.692 C 269.214 211.446,275.181 211.180,277.000 209.344 C 279.217 207.107,279.400 206.394,279.400 200.010 C 279.400 193.571,279.277 193.204,276.838 192.353 C 276.186 192.126,275.367 191.504,275.017 190.970 C 274.334 189.927,273.438 189.813,271.309 190.496 M145.565 191.442 C 145.272 191.795,144.080 192.505,142.916 193.020 C 140.625 194.034,140.511 194.210,141.369 195.435 C 142.052 196.410,145.405 196.224,149.552 194.982 C 152.453 194.113,152.221 193.408,148.489 191.742 C 145.980 190.623,146.224 190.648,145.565 191.442 M147.000 205.072 C 146.560 205.171,145.629 205.430,144.931 205.647 L 143.661 206.042 144.331 207.303 C 144.699 207.996,145.225 208.810,145.500 209.110 C 145.775 209.411,146.003 209.869,146.006 210.129 C 146.010 210.427,146.120 210.453,146.306 210.199 C 146.633 209.753,148.175 208.969,149.400 208.626 C 150.768 208.243,151.791 206.033,150.909 205.364 C 150.214 204.836,148.590 204.715,147.000 205.072 " stroke="none" fill="#fbfbfb" fill-rule="evenodd"></path><path id="path1" d="M225.470 173.558 C 224.899 174.224,223.600 177.936,223.600 178.900 C 223.600 179.202,223.243 179.833,222.806 180.301 C 221.550 181.650,220.913 183.829,220.207 189.200 C 219.660 193.356,219.399 194.336,218.662 195.005 C 217.533 196.031,216.918 197.626,216.582 200.400 C 215.883 206.169,213.176 207.125,212.050 202.000 C 210.786 196.249,210.284 194.632,209.582 194.045 C 209.002 193.560,208.704 192.506,208.380 189.800 C 207.249 180.350,206.821 178.366,205.619 177.000 C 205.232 176.560,204.588 175.628,204.188 174.929 C 202.668 172.269,200.800 173.097,200.800 176.431 C 200.800 178.395,201.278 179.823,202.579 181.749 C 203.349 182.888,203.514 183.619,204.396 189.800 C 204.908 193.398,205.667 195.676,206.734 196.821 C 207.416 197.553,207.982 200.315,208.601 205.935 C 208.731 207.109,208.992 208.369,209.182 208.735 C 209.371 209.101,210.038 210.473,210.663 211.785 C 211.818 214.206,212.979 215.563,213.920 215.587 C 214.842 215.610,216.800 214.397,216.800 213.802 C 216.800 213.484,217.146 212.608,217.570 211.854 C 218.801 209.662,219.377 207.310,220.372 200.406 C 220.630 198.615,220.993 197.611,221.545 197.164 C 222.596 196.313,223.440 193.235,224.155 187.643 C 224.684 183.504,225.073 182.430,226.053 182.406 C 226.193 182.403,226.955 183.165,227.747 184.100 C 228.539 185.035,229.640 186.257,230.193 186.815 C 231.351 187.983,232.184 190.894,232.584 195.171 C 232.846 197.963,234.102 201.600,234.805 201.600 C 235.407 201.600,236.036 204.216,236.432 208.378 C 236.950 213.808,237.252 214.390,239.927 215.129 C 242.974 215.972,244.332 214.022,244.382 208.733 C 244.404 206.395,244.702 205.600,245.554 205.600 C 246.402 205.600,247.724 200.527,248.589 193.959 C 248.722 192.946,249.152 191.773,249.544 191.352 C 251.341 189.423,254.024 175.168,252.742 174.356 C 250.687 173.054,249.207 174.525,248.632 178.441 C 247.634 185.247,247.168 187.155,246.203 188.400 C 245.143 189.768,244.484 194.246,244.014 203.271 C 243.993 203.669,242.800 204.800,242.401 204.800 C 240.805 204.800,236.732 197.783,236.169 194.063 C 235.277 188.171,234.443 185.075,233.565 184.392 C 232.997 183.950,232.608 182.756,232.138 180.009 C 231.166 174.332,230.910 173.895,228.245 173.361 C 226.331 172.978,225.943 173.005,225.470 173.558 M316.492 174.700 C 315.215 176.543,314.655 179.332,315.003 182.110 C 315.174 183.479,315.306 185.500,315.296 186.600 C 315.286 187.700,315.211 194.384,315.128 201.453 L 314.979 214.306 316.703 214.701 C 318.963 215.218,319.057 215.012,319.299 209.000 C 319.567 202.326,320.845 199.551,322.998 200.962 C 323.549 201.323,324.000 201.793,324.000 202.007 C 324.000 202.220,324.758 202.944,325.684 203.615 C 327.218 204.726,328.752 207.043,328.786 208.300 C 328.794 208.575,328.980 208.800,329.200 208.800 C 329.420 208.800,329.600 209.048,329.600 209.351 C 329.600 209.654,329.900 210.149,330.266 210.451 C 330.633 210.753,331.545 211.956,332.295 213.125 L 333.657 215.250 335.928 214.980 C 338.831 214.634,339.100 214.350,337.611 213.209 C 336.945 212.698,336.400 212.065,336.400 211.802 C 336.400 210.955,335.211 208.906,334.041 207.737 C 333.415 207.112,332.311 205.520,331.588 204.200 C 330.865 202.880,329.941 201.564,329.534 201.276 C 327.532 199.855,327.453 192.800,329.440 192.800 C 330.093 192.800,332.800 190.473,332.800 189.912 C 332.800 189.688,333.533 188.773,334.429 187.877 L 336.058 186.247 335.129 185.533 C 333.863 184.558,333.694 184.597,332.226 186.200 C 331.520 186.970,330.725 187.600,330.459 187.600 C 329.953 187.600,324.783 192.680,323.405 194.532 C 322.461 195.801,321.741 195.857,320.428 194.764 C 319.461 193.959,319.454 193.901,319.210 184.272 C 319.075 178.946,318.826 174.366,318.658 174.094 C 318.160 173.288,317.305 173.527,316.492 174.700 M270.000 184.767 C 267.432 185.207,266.332 185.741,265.197 187.099 C 264.648 187.755,263.750 188.428,263.200 188.595 C 261.621 189.073,261.308 189.485,260.364 192.328 C 258.382 198.292,259.807 211.600,262.426 211.600 C 262.775 211.600,263.346 211.915,263.696 212.300 C 266.631 215.533,266.572 215.495,269.111 215.790 C 270.469 215.947,273.302 215.947,275.408 215.789 C 279.572 215.477,278.985 215.779,283.346 211.698 C 283.756 211.314,284.425 210.235,284.832 209.300 C 285.239 208.365,285.736 207.600,285.937 207.600 C 286.761 207.600,287.240 205.072,287.309 200.373 C 287.385 195.225,286.883 192.800,285.743 192.800 C 285.435 192.800,284.984 192.305,284.742 191.700 C 283.706 189.118,283.312 188.630,281.676 187.905 C 280.728 187.485,279.851 186.878,279.728 186.556 C 279.142 185.030,273.995 184.084,270.000 184.767 M303.000 185.194 C 302.560 185.381,301.031 185.763,299.603 186.042 C 295.163 186.911,294.575 187.810,294.261 194.213 C 294.112 197.258,294.168 199.993,294.397 200.791 C 294.650 201.672,294.652 202.663,294.404 203.587 C 293.031 208.685,294.022 214.173,296.383 214.551 C 299.220 215.005,299.096 215.445,299.259 204.274 C 299.421 193.123,299.636 192.139,302.201 190.804 C 302.839 190.472,303.719 189.885,304.156 189.500 C 304.593 189.115,305.215 188.800,305.538 188.800 C 306.291 188.800,308.800 186.896,308.800 186.324 C 308.800 185.044,305.064 184.317,303.000 185.194 M279.024 190.571 C 280.464 192.131,281.255 193.394,281.567 194.634 C 281.816 195.623,282.285 196.535,282.610 196.659 C 283.464 196.987,283.456 203.290,282.600 204.000 C 282.270 204.274,282.000 204.712,282.000 204.973 C 282.000 206.577,279.090 211.235,277.733 211.802 C 275.172 212.872,267.600 212.356,267.600 211.111 C 267.600 210.930,266.900 210.021,266.045 209.091 C 262.617 205.365,262.571 194.316,265.972 191.623 C 266.772 190.988,267.673 190.012,267.972 189.453 C 268.683 188.124,269.133 188.018,273.367 188.175 L 276.933 188.307 279.024 190.571 " stroke="none" fill="#4b566a" fill-rule="evenodd"></path><path id="path2" d="M73.901 173.582 C 68.572 174.139,70.383 175.050,77.256 175.271 C 81.810 175.417,82.357 175.361,82.765 174.708 C 83.112 174.152,83.099 173.944,82.709 173.822 C 81.556 173.458,76.419 173.319,73.901 173.582 M65.495 177.500 C 64.823 178.248,64.706 179.639,64.764 186.257 L 64.800 190.313 66.408 190.957 C 67.293 191.310,68.373 191.600,68.808 191.600 C 69.244 191.600,69.600 191.780,69.600 192.000 C 69.600 192.560,71.340 192.500,71.920 191.920 C 72.913 190.927,72.423 190.108,70.300 189.211 C 67.432 187.998,66.820 187.129,66.809 184.254 C 66.798 181.510,68.014 178.912,69.481 178.544 C 70.034 178.405,70.400 178.012,70.400 177.557 C 70.400 176.494,66.440 176.449,65.495 177.500 M85.385 177.461 C 84.475 178.126,85.111 178.783,86.676 178.794 C 87.944 178.803,88.136 178.181,87.079 177.489 C 86.285 176.968,86.063 176.965,85.385 177.461 M89.357 181.029 C 89.072 182.164,89.756 183.211,90.369 182.580 C 90.803 182.134,90.465 180.000,89.961 180.000 C 89.771 180.000,89.499 180.463,89.357 181.029 M113.232 185.611 C 111.790 186.227,112.610 186.708,116.005 187.235 C 119.981 187.852,119.952 187.841,120.374 188.889 C 121.595 191.922,121.815 192.403,121.998 192.433 C 122.109 192.452,122.605 192.512,123.100 192.566 C 124.572 192.730,124.600 192.910,124.600 202.134 C 124.600 210.369,124.660 211.111,125.437 212.556 L 126.274 214.111 126.537 211.597 C 127.299 204.312,126.681 192.400,125.541 192.400 C 125.008 192.400,124.800 192.106,124.800 191.353 C 124.800 190.760,124.280 189.713,123.600 188.939 C 122.940 188.187,122.400 187.337,122.400 187.050 C 122.400 185.754,115.451 184.663,113.232 185.611 M182.533 185.547 C 179.549 185.853,178.979 186.260,181.059 186.600 C 181.907 186.739,183.410 187.010,184.400 187.202 C 185.794 187.473,186.413 187.414,187.143 186.939 C 188.946 185.765,186.783 185.112,182.533 185.547 M143.400 185.971 C 142.375 186.376,143.651 186.658,148.025 186.996 C 150.736 187.205,151.875 187.438,154.060 188.232 C 154.790 188.498,156.407 192.535,156.387 194.041 C 156.369 195.423,155.665 196.159,153.403 197.158 L 151.407 198.040 153.203 199.166 C 157.091 201.602,157.934 205.830,155.082 208.599 L 153.565 210.073 155.182 211.827 C 156.072 212.792,156.800 213.766,156.800 213.991 C 156.800 214.850,158.814 214.415,159.170 213.478 C 159.363 212.971,159.523 207.542,159.527 201.413 C 159.533 189.426,159.371 188.408,157.454 188.394 C 156.269 188.385,155.718 187.963,155.235 186.692 L 154.820 185.600 149.510 185.628 C 146.589 185.644,143.840 185.798,143.400 185.971 M104.700 188.823 C 103.633 190.188,103.796 194.074,105.026 196.561 C 105.409 197.337,105.616 199.197,105.647 202.161 C 105.728 209.771,106.243 209.393,106.443 201.578 C 106.643 193.710,107.543 190.400,109.479 190.400 C 110.339 190.400,109.089 188.970,107.521 188.159 C 106.017 187.381,105.787 187.436,104.700 188.823 M172.875 188.421 C 170.394 189.418,169.918 192.780,171.969 194.831 C 173.616 196.477,174.274 196.344,174.603 194.300 C 174.753 193.365,175.216 192.009,175.633 191.286 C 176.358 190.028,176.078 188.400,175.136 188.400 C 174.987 188.400,174.626 188.321,174.333 188.225 C 174.040 188.129,173.384 188.217,172.875 188.421 M189.067 188.667 C 188.594 189.139,188.782 190.370,189.446 191.146 C 190.287 192.128,191.600 191.804,191.600 190.615 C 191.600 189.249,189.839 187.894,189.067 188.667 M137.653 189.500 C 137.404 189.966,137.455 190.602,137.807 191.400 C 138.097 192.060,138.350 192.372,138.368 192.094 C 138.385 191.816,138.947 191.256,139.615 190.850 L 140.829 190.111 139.829 189.456 C 138.555 188.621,138.119 188.630,137.653 189.500 M72.400 193.373 C 72.400 194.237,72.621 194.381,74.300 194.605 C 75.345 194.745,76.722 195.026,77.360 195.230 C 77.998 195.433,79.622 195.600,80.971 195.600 C 83.637 195.600,85.200 196.331,85.200 197.579 C 85.200 198.038,85.594 198.412,86.248 198.576 C 89.920 199.498,90.988 208.725,87.550 209.816 C 85.997 210.309,87.049 211.200,89.184 211.200 C 90.931 211.200,91.076 210.875,92.386 204.000 C 92.637 202.681,92.578 201.890,92.164 201.039 C 91.854 200.400,91.594 199.500,91.587 199.039 C 91.567 197.672,90.645 196.849,88.810 196.555 C 87.409 196.331,87.006 196.069,86.663 195.162 C 86.146 193.792,82.956 192.997,76.500 192.630 L 72.400 192.396 72.400 193.373 M193.229 192.774 C 192.529 193.217,192.584 205.089,193.294 206.646 C 194.364 208.995,194.965 206.629,194.983 200.000 C 195.000 193.503,194.611 191.899,193.229 192.774 M137.049 204.182 C 135.949 208.561,136.756 214.060,138.589 214.674 C 139.636 215.025,149.998 214.981,151.134 214.621 C 153.328 213.924,151.420 212.621,148.698 212.958 C 147.544 213.101,146.420 213.230,146.200 213.245 C 145.106 213.320,140.923 212.261,140.374 211.770 C 137.511 209.209,139.262 202.400,142.784 202.400 C 143.039 202.400,143.136 202.220,143.000 202.000 C 142.864 201.780,141.615 201.600,140.225 201.600 L 137.697 201.600 137.049 204.182 M173.330 206.050 C 170.272 208.718,170.000 209.114,170.000 210.896 C 170.000 212.830,171.688 216.685,173.286 218.400 C 173.789 218.940,174.140 219.445,174.067 219.524 C 173.993 219.602,174.038 219.772,174.167 219.900 C 174.295 220.028,174.400 219.231,174.400 218.129 C 174.400 215.014,174.818 214.808,181.231 214.760 C 190.091 214.694,191.054 213.514,182.600 213.084 C 176.891 212.793,175.924 212.022,174.589 206.700 C 174.293 205.521,174.069 205.405,173.330 206.050 M65.307 208.100 C 64.187 209.532,64.901 211.600,66.516 211.600 C 67.414 211.600,68.800 212.823,68.800 213.615 C 68.800 214.740,70.189 214.971,77.000 214.977 C 85.539 214.984,86.800 214.730,86.800 212.999 C 86.800 211.428,86.223 210.871,85.653 211.892 C 84.717 213.567,72.206 213.045,70.453 211.257 C 69.874 210.667,68.725 209.768,67.900 209.259 C 67.075 208.751,66.400 208.169,66.400 207.967 C 66.400 207.438,65.764 207.515,65.307 208.100 M189.772 209.520 C 189.331 210.279,189.476 212.000,189.982 212.000 C 190.318 212.000,191.767 209.992,191.532 209.852 C 191.459 209.809,191.123 209.564,190.784 209.307 C 190.295 208.938,190.085 208.982,189.772 209.520 M106.114 212.600 C 106.117 213.700,106.195 214.103,106.287 213.495 C 106.379 212.886,106.377 211.986,106.282 211.495 C 106.187 211.003,106.111 211.500,106.114 212.600 M334.600 215.200 C 333.511 215.477,333.493 215.507,334.400 215.525 C 334.950 215.535,335.760 215.389,336.200 215.200 C 337.186 214.776,336.266 214.776,334.600 215.200 " stroke="none" fill="#c28464" fill-rule="evenodd"></path><path id="path3" d="M73.200 171.366 C 68.811 171.937,67.203 172.501,66.923 173.571 C 66.814 173.990,66.331 174.431,65.851 174.551 C 63.097 175.243,59.740 183.928,61.153 186.705 C 61.348 187.087,61.727 187.940,61.995 188.600 C 63.191 191.534,63.772 192.365,65.117 193.059 C 65.907 193.467,67.069 194.376,67.699 195.079 C 68.565 196.044,69.306 196.421,70.723 196.617 C 73.478 196.998,77.180 197.973,78.791 198.742 C 79.566 199.113,81.280 199.750,82.600 200.160 C 87.100 201.554,86.800 201.268,86.800 204.171 L 86.800 206.759 84.100 208.074 C 80.355 209.898,77.805 209.877,72.400 207.978 C 69.106 206.821,67.751 206.209,66.974 205.526 C 66.520 205.127,65.872 204.800,65.534 204.800 C 64.435 204.800,62.395 205.668,62.624 206.039 C 62.747 206.238,62.657 206.400,62.424 206.400 C 61.860 206.400,61.882 209.531,62.458 211.240 C 63.211 213.476,65.445 215.930,67.118 216.359 C 72.342 217.698,80.010 217.849,85.600 216.724 C 93.627 215.107,99.919 205.971,97.014 200.149 C 96.335 198.788,92.289 194.400,91.713 194.400 C 91.499 194.400,91.017 194.061,90.642 193.647 C 89.761 192.673,87.471 191.882,83.014 191.014 C 80.155 190.457,79.129 190.060,77.956 189.055 C 77.122 188.341,75.349 187.452,73.866 187.005 C 71.365 186.249,71.228 186.142,70.801 184.607 C 70.556 183.723,70.265 182.791,70.156 182.536 C 70.039 182.263,70.499 181.963,71.279 181.804 C 72.005 181.656,73.906 181.094,75.503 180.555 C 77.692 179.816,78.596 179.677,79.177 179.988 C 79.601 180.214,80.472 180.400,81.114 180.400 C 81.786 180.400,83.014 180.932,84.014 181.656 C 87.386 184.099,89.778 184.943,91.292 184.224 C 92.835 183.492,93.808 182.151,93.292 181.469 C 93.097 181.211,92.623 180.147,92.238 179.105 C 91.798 177.916,91.065 176.884,90.269 176.334 C 89.571 175.852,88.442 174.867,87.761 174.145 C 86.133 172.421,84.216 171.795,78.200 171.025 C 77.540 170.940,75.290 171.094,73.200 171.366 M82.709 173.822 C 83.099 173.944,83.112 174.152,82.765 174.708 C 82.260 175.517,72.997 175.529,71.466 174.722 C 69.422 173.645,79.568 172.833,82.709 173.822 M70.400 177.557 C 70.400 178.012,70.034 178.405,69.481 178.544 C 68.014 178.912,66.798 181.510,66.809 184.254 C 66.820 187.129,67.432 187.998,70.300 189.211 C 72.423 190.108,72.913 190.927,71.920 191.920 C 71.340 192.500,69.600 192.560,69.600 192.000 C 69.600 191.780,69.244 191.600,68.808 191.600 C 68.373 191.600,67.293 191.310,66.408 190.957 L 64.800 190.313 64.764 186.257 C 64.684 177.091,64.792 176.800,68.262 176.800 C 70.092 176.800,70.400 176.909,70.400 177.557 M87.773 178.444 C 87.485 178.910,85.961 178.890,85.202 178.410 C 84.688 178.085,84.714 177.951,85.385 177.461 C 86.232 176.841,88.250 177.672,87.773 178.444 M90.523 181.100 C 90.775 182.384,90.223 183.183,89.549 182.509 C 89.060 182.020,89.391 180.000,89.961 180.000 C 90.151 180.000,90.404 180.495,90.523 181.100 M112.650 183.083 C 112.494 183.239,110.160 183.484,107.463 183.627 C 102.809 183.874,101.297 184.245,100.108 185.435 C 99.739 185.804,99.598 187.732,99.594 192.471 C 99.590 197.188,99.424 199.471,98.997 200.698 C 98.517 202.075,98.480 203.094,98.800 206.098 C 99.409 211.824,100.251 213.950,102.309 214.958 C 103.129 215.360,104.113 215.849,104.495 216.044 C 105.705 216.664,106.617 216.435,107.782 215.219 L 108.914 214.037 108.630 208.438 C 108.175 199.482,109.438 192.858,111.608 192.813 C 111.943 192.806,112.661 192.384,113.203 191.875 C 114.075 191.056,117.706 190.917,118.172 191.684 C 118.210 191.748,118.564 192.313,118.957 192.941 C 119.550 193.886,119.692 195.157,119.786 200.341 C 120.030 213.683,120.389 215.036,123.924 215.942 C 128.559 217.130,129.766 212.558,128.918 197.035 L 128.505 189.480 126.453 187.501 C 125.324 186.413,124.400 185.401,124.400 185.252 C 124.400 183.932,113.764 181.969,112.650 183.083 M150.200 183.224 C 148.660 183.394,146.224 183.436,144.786 183.317 C 140.596 182.971,135.713 186.064,135.544 189.172 C 135.314 193.410,136.593 196.175,138.993 196.625 C 141.040 197.009,140.923 198.228,138.785 198.804 C 137.132 199.249,134.800 201.279,134.800 202.273 C 134.800 202.577,134.175 203.452,133.411 204.216 C 131.769 205.858,131.802 206.751,133.645 210.632 C 134.280 211.969,134.800 213.330,134.800 213.657 C 134.800 214.667,136.911 216.331,138.800 216.809 C 142.082 217.641,142.756 217.690,144.686 217.243 C 145.739 216.999,149.432 216.725,152.893 216.636 C 158.690 216.486,161.600 215.988,161.600 215.146 C 161.600 215.003,162.050 214.774,162.600 214.636 C 163.879 214.315,163.926 212.800,162.787 208.550 C 162.339 206.881,162.070 205.209,162.189 204.836 C 162.737 203.109,161.638 189.416,160.822 187.800 C 159.360 184.904,155.841 182.547,153.440 182.857 C 153.198 182.888,151.740 183.053,150.200 183.224 M183.200 183.170 C 182.650 183.336,179.761 183.587,176.779 183.729 C 168.063 184.143,167.600 184.526,167.600 191.336 C 167.600 193.632,167.404 198.726,167.165 202.656 C 166.684 210.566,167.262 222.923,168.243 225.717 C 169.037 227.974,169.649 228.400,172.105 228.400 C 175.067 228.400,176.238 227.128,176.798 223.302 C 177.015 221.816,177.308 219.925,177.449 219.100 L 177.705 217.600 180.680 217.600 C 185.262 217.600,190.232 216.495,191.531 215.187 C 195.625 211.068,196.400 210.107,196.400 209.149 C 196.400 208.587,196.668 207.244,196.996 206.164 C 198.199 202.196,197.659 194.828,195.924 191.552 C 192.179 184.482,187.994 181.725,183.200 183.170 M121.300 186.023 C 121.905 186.301,122.400 186.763,122.400 187.050 C 122.400 187.337,122.940 188.187,123.600 188.939 C 124.280 189.713,124.800 190.760,124.800 191.353 C 124.800 192.106,125.008 192.400,125.541 192.400 C 126.681 192.400,127.299 204.312,126.537 211.597 L 126.274 214.111 125.437 212.556 C 124.660 211.111,124.600 210.369,124.600 202.134 C 124.600 192.910,124.572 192.730,123.100 192.566 C 122.605 192.512,122.109 192.452,121.998 192.433 C 121.815 192.403,121.595 191.922,120.374 188.889 C 119.952 187.841,119.981 187.852,116.005 187.235 C 112.610 186.708,111.790 186.227,113.232 185.611 C 114.465 185.084,119.856 185.359,121.300 186.023 M187.730 185.970 C 188.509 186.749,186.290 187.570,184.400 187.202 C 183.410 187.010,181.907 186.739,181.059 186.600 C 178.979 186.260,179.549 185.853,182.533 185.547 C 185.255 185.269,187.186 185.426,187.730 185.970 M155.235 186.692 C 155.718 187.963,156.269 188.385,157.454 188.394 C 159.371 188.408,159.533 189.426,159.527 201.413 C 159.523 207.542,159.363 212.971,159.170 213.478 C 158.814 214.415,156.800 214.850,156.800 213.991 C 156.800 213.766,156.072 212.792,155.182 211.827 L 153.565 210.073 155.082 208.599 C 157.934 205.830,157.091 201.602,153.203 199.166 L 151.407 198.040 153.403 197.158 C 155.665 196.159,156.369 195.423,156.387 194.041 C 156.407 192.535,154.790 188.498,154.060 188.232 C 151.875 187.438,150.736 187.205,148.025 186.996 C 140.647 186.426,141.468 185.671,149.510 185.628 L 154.820 185.600 155.235 186.692 M107.521 188.159 C 109.089 188.970,110.339 190.400,109.479 190.400 C 107.543 190.400,106.643 193.710,106.443 201.578 C 106.243 209.393,105.728 209.771,105.647 202.161 C 105.616 199.197,105.409 197.337,105.026 196.561 C 102.701 191.858,104.294 186.491,107.521 188.159 M175.136 188.400 C 176.078 188.400,176.358 190.028,175.633 191.286 C 175.216 192.009,174.753 193.365,174.603 194.300 C 174.274 196.344,173.616 196.477,171.969 194.831 C 169.484 192.346,171.314 187.233,174.333 188.225 C 174.626 188.321,174.987 188.400,175.136 188.400 M190.869 189.062 C 191.832 189.934,191.820 191.449,190.846 191.704 C 189.978 191.931,188.800 190.756,188.800 189.662 C 188.800 188.271,189.705 188.009,190.869 189.062 M139.829 189.456 L 140.829 190.111 139.615 190.850 C 138.947 191.256,138.385 191.816,138.368 192.094 C 138.350 192.372,138.097 192.060,137.807 191.400 C 136.872 189.278,137.961 188.232,139.829 189.456 M187.089 193.521 C 187.577 194.058,188.093 194.881,188.234 195.349 C 188.375 195.817,188.923 196.663,189.452 197.229 C 190.539 198.392,190.973 203.587,190.061 204.499 C 189.807 204.753,189.600 205.245,189.600 205.594 C 189.600 205.942,189.048 206.553,188.374 206.952 C 187.700 207.350,186.957 208.097,186.722 208.611 C 186.018 210.157,181.305 211.315,180.882 210.045 C 180.709 209.526,180.446 209.275,178.710 207.974 C 175.420 205.509,175.771 193.750,179.187 192.006 C 179.964 191.610,180.932 190.918,181.337 190.470 L 182.074 189.655 184.137 191.100 C 185.272 191.894,186.600 192.984,187.089 193.521 M148.489 191.742 C 152.221 193.408,152.453 194.113,149.552 194.982 C 145.405 196.224,142.052 196.410,141.369 195.435 C 140.511 194.210,140.625 194.034,142.916 193.020 C 144.080 192.505,145.272 191.795,145.565 191.442 C 146.224 190.648,145.980 190.623,148.489 191.742 M83.421 193.454 C 85.899 193.973,86.293 194.181,86.663 195.162 C 87.006 196.069,87.409 196.331,88.810 196.555 C 90.645 196.849,91.567 197.672,91.587 199.039 C 91.594 199.500,91.854 200.400,92.164 201.039 C 92.578 201.890,92.637 202.681,92.386 204.000 C 91.076 210.875,90.931 211.200,89.184 211.200 C 87.049 211.200,85.997 210.309,87.550 209.816 C 90.988 208.725,89.920 199.498,86.248 198.576 C 85.594 198.412,85.200 198.038,85.200 197.579 C 85.200 196.331,83.637 195.600,80.971 195.600 C 79.622 195.600,77.998 195.433,77.360 195.230 C 76.722 195.026,75.345 194.745,74.300 194.605 C 72.621 194.381,72.400 194.237,72.400 193.373 L 72.400 192.396 76.500 192.630 C 78.755 192.758,81.869 193.129,83.421 193.454 M194.679 193.900 C 195.382 197.238,194.903 207.600,194.046 207.600 C 192.804 207.600,192.028 193.533,193.229 192.774 C 194.163 192.183,194.348 192.326,194.679 193.900 M143.000 202.000 C 143.136 202.220,143.039 202.400,142.784 202.400 C 139.262 202.400,137.511 209.209,140.374 211.770 C 140.923 212.261,145.106 213.320,146.200 213.245 C 146.420 213.230,147.544 213.101,148.698 212.958 C 151.420 212.621,153.328 213.924,151.134 214.621 C 149.998 214.981,139.636 215.025,138.589 214.674 C 136.756 214.060,135.949 208.561,137.049 204.182 L 137.697 201.600 140.225 201.600 C 141.615 201.600,142.864 201.780,143.000 202.000 M150.909 205.364 C 151.791 206.033,150.768 208.243,149.400 208.626 C 148.175 208.969,146.633 209.753,146.306 210.199 C 146.120 210.453,146.010 210.427,146.006 210.129 C 146.003 209.869,145.775 209.411,145.500 209.110 C 145.225 208.810,144.699 207.996,144.331 207.303 L 143.661 206.042 144.931 205.647 C 147.989 204.696,149.909 204.605,150.909 205.364 M174.589 206.700 C 175.924 212.022,176.891 212.793,182.600 213.084 C 191.054 213.514,190.091 214.694,181.231 214.760 C 174.818 214.808,174.400 215.014,174.400 218.129 C 174.400 219.231,174.295 220.028,174.167 219.900 C 174.038 219.772,173.993 219.602,174.067 219.524 C 174.140 219.445,173.789 218.940,173.286 218.400 C 169.968 214.839,169.112 209.946,171.430 207.790 C 174.259 205.159,174.207 205.177,174.589 206.700 M66.400 207.967 C 66.400 208.169,67.075 208.751,67.900 209.259 C 68.725 209.768,69.874 210.667,70.453 211.257 C 72.206 213.045,84.717 213.567,85.653 211.892 C 86.223 210.871,86.800 211.428,86.800 212.999 C 86.800 214.730,85.539 214.984,77.000 214.977 C 70.189 214.971,68.800 214.740,68.800 213.615 C 68.800 212.823,67.414 211.600,66.516 211.600 C 65.553 211.600,64.491 210.339,64.707 209.454 C 65.054 208.032,66.400 206.850,66.400 207.967 M191.532 209.852 C 191.767 209.992,190.318 212.000,189.982 212.000 C 189.476 212.000,189.331 210.279,189.772 209.520 C 190.085 208.982,190.295 208.938,190.784 209.307 C 191.123 209.564,191.459 209.809,191.532 209.852 M106.287 213.495 C 106.195 214.103,106.117 213.700,106.114 212.600 C 106.111 211.500,106.187 211.003,106.282 211.495 C 106.377 211.986,106.379 212.886,106.287 213.495 " stroke="none" fill="#eeb08d" fill-rule="evenodd"></path><path id="path4" d="M74.900 171.076 C 75.285 171.176,75.915 171.176,76.300 171.076 C 76.685 170.975,76.370 170.893,75.600 170.893 C 74.830 170.893,74.515 170.975,74.900 171.076 M79.800 171.223 C 81.826 171.642,83.463 171.623,81.800 171.200 C 81.140 171.032,80.060 170.894,79.400 170.893 C 78.391 170.892,78.455 170.945,79.800 171.223 M201.352 171.309 C 199.357 172.370,198.800 173.283,198.800 175.493 C 198.800 180.313,200.162 185.705,201.792 187.335 C 202.277 187.820,202.572 189.093,202.805 191.709 C 203.408 198.480,203.982 200.582,205.619 202.012 C 206.067 202.403,206.413 203.490,206.577 205.012 C 207.559 214.168,208.364 215.805,212.503 217.061 C 217.043 218.439,220.199 215.835,220.816 210.200 C 221.420 204.681,221.875 202.864,222.981 201.550 C 224.208 200.092,224.605 198.689,225.179 193.800 C 225.936 187.342,225.700 187.600,228.175 190.518 C 229.952 192.613,230.373 193.404,230.575 195.029 C 231.526 202.647,232.093 204.679,233.649 206.038 C 234.205 206.524,234.465 207.609,234.738 210.573 C 235.214 215.749,235.714 216.440,239.439 217.059 C 243.412 217.719,244.880 216.726,245.747 212.792 C 245.869 212.238,246.291 211.428,246.685 210.992 C 248.209 209.305,248.674 207.484,249.549 199.786 C 249.760 197.933,250.117 197.004,251.085 195.786 C 252.381 194.156,252.651 193.001,253.591 185.070 C 253.831 183.040,254.142 182.127,254.801 181.513 C 258.893 177.701,257.275 171.600,252.171 171.600 C 247.963 171.600,247.338 172.460,246.597 179.272 C 246.452 180.605,246.086 181.762,245.713 182.072 C 244.388 183.171,242.800 189.261,242.800 193.244 C 242.800 195.599,242.365 198.801,242.046 198.795 C 241.911 198.793,241.459 198.080,241.043 197.211 C 240.627 196.342,239.781 195.181,239.164 194.631 C 238.527 194.063,237.953 193.063,237.835 192.316 C 237.722 191.592,237.344 188.934,236.997 186.409 C 236.425 182.251,236.235 181.651,234.983 180.044 C 234.222 179.067,233.597 177.803,233.594 177.234 C 233.570 173.160,231.815 171.262,227.929 171.107 C 224.763 170.980,223.251 171.822,222.682 174.030 C 222.488 174.783,222.070 175.546,221.755 175.725 C 220.371 176.509,219.127 180.801,218.611 186.569 C 218.438 188.505,218.147 189.528,217.644 189.969 C 216.180 191.252,215.141 194.688,214.581 200.100 C 214.326 202.562,213.600 203.280,213.600 201.070 C 213.600 198.820,212.398 191.038,211.988 190.628 C 211.774 190.414,211.600 189.998,211.600 189.703 C 211.600 189.408,211.242 188.783,210.805 188.313 C 209.923 187.367,209.879 187.163,208.982 179.848 C 208.174 173.261,207.780 172.618,203.831 171.429 C 202.636 171.070,201.873 171.033,201.352 171.309 M316.000 171.459 C 312.404 172.099,311.600 173.426,311.600 178.725 C 311.600 183.114,311.008 183.995,308.593 183.198 C 307.450 182.821,305.669 182.830,300.326 183.241 L 293.515 183.764 292.462 185.145 L 291.409 186.526 291.405 200.697 L 291.400 214.868 292.522 215.834 C 293.489 216.666,294.052 216.800,296.593 216.800 C 301.266 216.800,301.199 216.974,301.206 204.846 C 301.213 193.311,301.253 193.145,304.167 192.729 C 306.504 192.394,308.318 191.689,309.393 190.698 C 311.029 189.190,311.534 192.334,311.569 204.242 C 311.606 216.606,311.558 216.466,315.875 216.954 C 320.366 217.462,321.200 216.368,321.200 209.966 C 321.200 207.814,321.376 205.590,321.590 205.025 L 321.981 203.998 324.062 205.573 C 325.747 206.849,326.308 207.591,327.005 209.474 C 327.617 211.129,328.230 212.031,329.130 212.600 C 329.825 213.040,330.514 213.850,330.661 214.400 C 331.718 218.362,340.800 218.207,340.800 214.227 C 340.800 212.719,339.864 211.280,338.560 210.785 C 338.019 210.579,337.600 210.093,337.600 209.671 C 337.600 208.612,336.557 206.652,335.244 205.247 C 333.733 203.629,332.981 202.421,332.650 201.079 C 332.481 200.392,331.832 199.638,330.975 199.132 C 329.645 198.347,329.381 197.185,330.356 196.400 C 330.493 196.290,331.114 195.516,331.737 194.681 C 332.360 193.845,333.471 192.768,334.204 192.287 C 334.938 191.806,335.857 190.870,336.246 190.206 C 336.635 189.543,337.531 188.384,338.237 187.631 C 339.837 185.925,339.522 185.221,336.493 183.734 C 333.829 182.426,331.643 182.877,329.086 185.261 C 328.178 186.107,327.305 186.800,327.145 186.800 C 326.985 186.800,326.748 187.133,326.619 187.539 C 326.490 187.946,325.938 188.482,325.392 188.731 C 324.847 188.979,324.400 189.445,324.400 189.764 C 324.400 190.084,324.049 190.457,323.620 190.594 C 323.192 190.730,322.724 191.210,322.581 191.661 C 321.822 194.051,321.391 191.191,321.182 182.374 C 320.923 171.479,320.531 170.653,316.000 171.459 M84.000 172.000 C 84.330 172.213,84.870 172.388,85.200 172.388 C 85.733 172.388,85.733 172.345,85.200 172.000 C 84.870 171.787,84.330 171.612,84.000 171.612 C 83.467 171.612,83.467 171.655,84.000 172.000 M230.981 175.021 C 231.262 175.688,231.782 177.933,232.138 180.009 C 232.608 182.756,232.997 183.950,233.565 184.392 C 234.443 185.075,235.277 188.171,236.169 194.063 C 236.732 197.783,240.805 204.800,242.401 204.800 C 242.800 204.800,243.993 203.669,244.014 203.271 C 244.484 194.246,245.143 189.768,246.203 188.400 C 247.168 187.155,247.634 185.247,248.632 178.441 C 249.207 174.525,250.687 173.054,252.742 174.356 C 254.024 175.168,251.341 189.423,249.544 191.352 C 249.152 191.773,248.722 192.946,248.589 193.959 C 247.724 200.527,246.402 205.600,245.554 205.600 C 244.702 205.600,244.404 206.395,244.382 208.733 C 244.332 214.038,242.978 215.963,239.828 215.207 C 237.181 214.572,236.990 214.180,236.416 208.192 C 236.033 204.194,235.399 201.600,234.805 201.600 C 234.102 201.600,232.846 197.963,232.584 195.171 C 232.184 190.894,231.351 187.983,230.193 186.815 C 229.640 186.257,228.539 185.035,227.747 184.100 C 226.955 183.165,226.193 182.403,226.053 182.406 C 225.073 182.430,224.684 183.504,224.155 187.643 C 223.440 193.235,222.596 196.313,221.545 197.164 C 220.993 197.611,220.630 198.615,220.372 200.406 C 219.377 207.310,218.801 209.662,217.570 211.854 C 217.146 212.608,216.800 213.484,216.800 213.802 C 216.800 214.397,214.842 215.610,213.920 215.587 C 212.979 215.563,211.818 214.206,210.663 211.785 C 210.038 210.473,209.371 209.101,209.182 208.735 C 208.992 208.369,208.731 207.109,208.601 205.935 C 207.982 200.315,207.416 197.553,206.734 196.821 C 205.667 195.676,204.908 193.398,204.396 189.800 C 203.514 183.619,203.349 182.888,202.579 181.749 C 201.248 179.779,200.800 178.383,200.800 176.203 C 200.800 172.971,202.667 172.268,204.188 174.929 C 204.588 175.628,205.232 176.560,205.619 177.000 C 206.821 178.366,207.249 180.350,208.380 189.800 C 208.704 192.506,209.002 193.560,209.582 194.045 C 210.284 194.632,210.786 196.249,212.050 202.000 C 213.176 207.125,215.883 206.169,216.582 200.400 C 216.918 197.626,217.533 196.031,218.662 195.005 C 219.399 194.336,219.660 193.356,220.207 189.200 C 220.913 183.829,221.550 181.650,222.806 180.301 C 223.243 179.833,223.600 179.202,223.600 178.900 C 223.600 177.936,224.899 174.224,225.470 173.558 C 226.438 172.427,230.324 173.458,230.981 175.021 M318.658 174.094 C 318.826 174.366,319.075 178.946,319.210 184.272 C 319.454 193.901,319.461 193.959,320.428 194.764 C 321.741 195.857,322.461 195.801,323.405 194.532 C 324.668 192.834,329.933 187.600,330.377 187.600 C 330.599 187.600,331.354 186.970,332.055 186.200 C 333.488 184.625,333.993 184.515,335.436 185.460 L 336.443 186.120 334.622 187.841 C 333.620 188.787,332.800 189.732,332.800 189.939 C 332.800 190.480,330.075 192.800,329.440 192.800 C 327.453 192.800,327.532 199.855,329.534 201.276 C 329.941 201.564,330.865 202.880,331.588 204.200 C 332.311 205.520,333.448 207.140,334.113 207.800 C 334.779 208.460,335.659 209.752,336.068 210.671 C 336.477 211.590,337.287 212.688,337.867 213.110 C 339.243 214.113,338.907 214.551,336.280 215.181 C 333.955 215.738,332.400 215.098,332.400 213.583 C 332.400 213.232,331.770 212.208,331.000 211.308 C 330.230 210.409,329.600 209.476,329.600 209.236 C 329.600 208.996,329.420 208.800,329.200 208.800 C 328.980 208.800,328.794 208.575,328.786 208.300 C 328.752 207.043,327.218 204.726,325.684 203.615 C 324.758 202.944,324.000 202.220,324.000 202.007 C 324.000 201.793,323.549 201.323,322.998 200.962 C 320.845 199.551,319.567 202.326,319.299 209.000 C 319.057 215.012,318.963 215.218,316.703 214.701 L 314.979 214.306 315.128 201.453 C 315.211 194.384,315.284 187.700,315.292 186.600 C 315.299 185.500,315.169 183.411,315.003 181.958 C 314.458 177.210,317.088 171.554,318.658 174.094 M88.400 174.685 C 88.400 174.910,89.101 175.558,89.959 176.125 C 91.079 176.867,91.716 177.697,92.225 179.078 C 92.614 180.135,93.109 181.180,93.325 181.400 C 93.583 181.663,93.614 181.525,93.415 181.000 C 93.249 180.560,92.937 179.570,92.722 178.800 C 92.361 177.511,90.825 175.600,90.149 175.600 C 89.992 175.600,89.534 175.302,89.131 174.938 C 88.729 174.574,88.400 174.460,88.400 174.685 M61.086 180.362 C 59.952 182.282,60.468 188.800,61.755 188.800 C 62.035 188.800,61.488 186.778,61.152 186.570 C 60.546 186.196,60.767 183.295,61.562 181.204 C 62.402 178.992,62.154 178.553,61.086 180.362 M92.957 182.969 C 92.414 184.382,90.134 184.897,88.200 184.041 C 85.911 183.029,85.896 183.502,88.165 185.132 C 90.266 186.641,90.313 186.646,91.632 185.498 C 92.577 184.677,93.860 182.400,93.379 182.400 C 93.267 182.400,93.077 182.656,92.957 182.969 M267.000 183.086 C 265.229 183.513,263.660 184.504,263.451 185.328 C 263.319 185.849,262.539 186.529,261.515 187.017 C 259.984 187.746,259.714 188.092,259.000 190.240 C 258.560 191.563,257.821 193.176,257.357 193.823 C 255.187 196.852,255.177 204.774,257.339 207.128 C 257.808 207.638,258.554 209.078,258.996 210.328 C 259.634 212.130,260.067 212.724,261.091 213.200 C 261.801 213.530,262.664 214.382,263.007 215.093 C 264.744 218.691,280.275 218.752,283.558 215.173 C 289.263 208.953,289.131 209.303,289.170 200.361 C 289.202 192.884,288.884 191.301,287.165 190.381 C 286.739 190.153,286.078 189.316,285.695 188.520 C 285.313 187.724,284.657 186.876,284.238 186.636 C 283.820 186.396,282.895 185.650,282.183 184.977 C 280.150 183.054,271.562 181.985,267.000 183.086 M146.305 183.483 C 146.802 183.579,147.522 183.575,147.905 183.475 C 148.287 183.375,147.880 183.296,147.000 183.301 C 146.120 183.305,145.807 183.387,146.305 183.483 M278.382 185.391 C 278.999 185.710,279.604 186.234,279.728 186.556 C 279.851 186.878,280.728 187.485,281.676 187.905 C 283.312 188.630,283.706 189.118,284.742 191.700 C 284.984 192.305,285.435 192.800,285.743 192.800 C 286.883 192.800,287.385 195.225,287.309 200.373 C 287.240 205.072,286.761 207.600,285.937 207.600 C 285.736 207.600,285.239 208.365,284.832 209.300 C 284.425 210.235,283.756 211.314,283.346 211.698 C 278.963 215.800,279.540 215.500,275.450 215.806 C 273.380 215.962,270.552 215.957,269.164 215.796 C 266.565 215.494,266.639 215.542,263.696 212.300 C 263.346 211.915,262.775 211.600,262.426 211.600 C 259.807 211.600,258.382 198.292,260.364 192.328 C 261.308 189.485,261.621 189.073,263.200 188.595 C 263.750 188.428,264.648 187.755,265.197 187.099 C 267.294 184.589,274.921 183.601,278.382 185.391 M308.100 185.357 C 309.287 186.258,307.395 188.800,305.538 188.800 C 305.215 188.800,304.593 189.115,304.156 189.500 C 303.719 189.885,302.839 190.472,302.201 190.804 C 299.636 192.139,299.421 193.123,299.259 204.274 C 299.096 215.445,299.220 215.005,296.383 214.551 C 294.022 214.173,293.031 208.685,294.404 203.587 C 294.652 202.663,294.650 201.672,294.397 200.791 C 294.168 199.993,294.112 197.258,294.261 194.213 C 294.575 187.810,295.163 186.911,299.603 186.042 C 301.031 185.763,302.560 185.381,303.000 185.194 C 304.239 184.668,307.321 184.766,308.100 185.357 M194.468 189.258 C 195.003 189.996,195.687 191.095,195.988 191.699 C 196.872 193.476,196.940 192.632,196.071 190.667 C 195.633 189.678,194.875 188.654,194.385 188.392 C 193.506 187.922,193.507 187.932,194.468 189.258 M269.158 188.239 C 268.805 188.348,268.271 188.894,267.972 189.453 C 267.673 190.012,266.772 190.988,265.972 191.623 C 262.571 194.316,262.617 205.365,266.045 209.091 C 266.900 210.021,267.600 210.930,267.600 211.111 C 267.600 212.356,275.172 212.872,277.733 211.802 C 279.090 211.235,282.000 206.577,282.000 204.973 C 282.000 204.712,282.270 204.274,282.600 204.000 C 283.456 203.290,283.464 196.987,282.610 196.659 C 282.285 196.535,281.816 195.623,281.567 194.634 C 281.255 193.394,280.464 192.131,279.024 190.571 L 276.933 188.307 273.367 188.175 C 271.405 188.102,269.511 188.131,269.158 188.239 M275.017 190.970 C 275.367 191.504,276.186 192.126,276.838 192.353 C 279.277 193.204,279.400 193.571,279.400 200.010 C 279.400 206.394,279.217 207.107,277.000 209.344 C 275.181 211.180,269.214 211.446,269.191 209.692 C 269.179 208.763,267.988 207.267,266.781 206.666 C 265.543 206.049,265.082 203.280,265.415 198.473 C 265.709 194.238,265.750 194.148,267.803 193.240 C 268.748 192.822,269.633 192.127,269.770 191.695 C 270.287 190.064,274.080 189.540,275.017 190.970 M135.600 193.951 C 135.600 194.217,136.075 194.922,136.656 195.517 L 137.712 196.600 136.786 195.200 C 135.567 193.359,135.600 193.393,135.600 193.951 M61.258 200.931 C 59.451 203.107,59.155 206.720,60.565 209.372 C 61.633 211.381,63.249 213.294,62.616 211.800 C 62.430 211.360,62.196 209.819,62.098 208.376 L 61.918 205.751 63.506 205.276 C 65.656 204.631,66.161 204.673,66.964 205.560 C 67.342 205.978,67.979 206.406,68.379 206.510 C 69.631 206.838,67.723 203.792,66.143 202.941 C 65.404 202.544,64.800 202.084,64.800 201.919 C 64.800 200.980,61.890 200.168,61.258 200.931 M108.540 204.400 C 108.540 206.270,108.609 207.035,108.693 206.100 C 108.777 205.165,108.777 203.635,108.693 202.700 C 108.609 201.765,108.540 202.530,108.540 204.400 M189.539 204.045 C 189.196 204.570,188.787 205.405,188.631 205.900 C 188.474 206.395,188.148 206.800,187.906 206.800 C 187.665 206.800,187.569 206.902,187.694 207.028 C 188.074 207.407,189.600 206.251,189.600 205.584 C 189.600 205.241,189.800 204.760,190.045 204.515 C 190.290 204.270,190.417 203.850,190.327 203.580 C 190.227 203.282,189.920 203.464,189.539 204.045 M131.763 205.753 C 131.448 206.573,132.637 210.757,133.436 211.640 C 134.520 212.837,134.511 212.289,133.412 210.157 C 132.858 209.080,132.358 207.525,132.302 206.701 C 132.192 205.078,132.090 204.899,131.763 205.753 M99.910 213.169 C 100.450 216.846,108.800 218.103,108.800 214.507 C 108.800 214.366,108.295 214.734,107.678 215.325 C 106.504 216.450,105.659 216.641,104.495 216.044 C 104.113 215.849,103.129 215.360,102.309 214.958 C 101.396 214.511,100.668 213.796,100.430 213.114 C 99.926 211.669,99.694 211.693,99.910 213.169 M128.387 213.300 C 128.371 214.456,127.623 215.427,126.162 216.189 C 125.336 216.620,125.211 216.796,125.731 216.798 C 126.822 216.801,128.800 214.631,128.800 213.431 C 128.800 212.864,128.710 212.400,128.600 212.400 C 128.490 212.400,128.394 212.805,128.387 213.300 M163.600 213.992 C 163.600 214.208,163.150 214.498,162.600 214.636 C 162.050 214.774,161.600 215.026,161.600 215.197 C 161.600 215.367,161.203 215.611,160.717 215.737 C 160.232 215.864,159.954 216.087,160.099 216.233 C 160.430 216.564,164.000 214.505,164.000 213.983 C 164.000 213.772,163.910 213.600,163.800 213.600 C 163.690 213.600,163.600 213.777,163.600 213.992 M122.800 216.000 C 123.130 216.213,123.760 216.378,124.200 216.366 L 125.000 216.344 124.200 216.000 C 123.004 215.486,122.005 215.486,122.800 216.000 M146.700 217.089 C 147.415 217.178,148.585 217.178,149.300 217.089 C 150.015 217.001,149.430 216.928,148.000 216.928 C 146.570 216.928,145.985 217.001,146.700 217.089 M167.628 225.114 C 167.600 226.016,168.594 227.922,169.391 228.494 C 169.616 228.656,170.610 228.759,171.600 228.724 L 173.400 228.660 171.646 228.504 C 169.618 228.324,168.980 227.806,168.211 225.712 C 167.789 224.562,167.650 224.419,167.628 225.114 M175.032 227.513 L 174.264 228.600 175.332 227.630 C 176.454 226.611,176.593 226.392,176.100 226.413 C 175.935 226.419,175.454 226.914,175.032 227.513 " stroke="none" fill="#a4afc3" fill-rule="evenodd"></path></g></svg>